<svg width="148" height="91" viewBox="0 0 148 91" fill="none" xmlns="http://www.w3.org/2000/svg">
<path d="M86.5453 0.48278C86.5453 0.75114 86.5453 0.885319 86.5453 1.15368C86.5453 5.44743 86.5453 9.60701 86.5453 13.9008C86.5453 14.1691 86.5453 14.3033 86.5453 14.5717C90.5707 14.5717 94.4619 14.5717 98.4873 14.5717C98.4873 17.9262 98.4873 21.1465 98.4873 24.3669C94.4619 24.3669 90.5707 24.3669 86.5453 24.3669C86.5453 24.501 86.5453 24.6352 86.5453 24.7694C86.5453 32.5518 86.5453 40.4684 86.5453 48.2508C86.5453 49.0559 86.8136 49.861 87.2162 50.6661C87.7529 51.6053 88.6921 52.0079 89.7656 52.0079C90.7048 52.0079 91.5099 51.7395 92.1808 51.337C92.7175 51.0686 93.1201 50.8003 93.791 50.9344C94.1935 50.9344 94.596 51.0686 94.8644 51.337C95.1327 51.6053 95.2669 51.8737 95.5353 52.142C97.0113 54.4231 98.4873 56.5699 99.9632 58.851C99.9632 58.851 99.9633 58.9852 100.097 58.9852C99.9633 59.1194 99.8291 59.2536 99.6949 59.3878C97.548 60.8637 95.1328 61.9372 92.4492 62.4739C89.7656 63.1448 87.082 63.4131 84.2642 63.1448C81.1781 62.8764 78.3603 61.9372 76.0792 59.9245C73.9323 58.1802 72.7247 55.7649 72.188 53.0813C71.9196 51.7395 71.7855 50.3977 71.7855 48.9217C71.7855 41.0051 71.7855 32.9544 71.7855 25.0378C71.7855 24.7694 71.7855 24.6352 71.7855 24.2326C71.5171 24.2326 71.383 24.2326 71.2488 24.2326C70.0412 24.2326 68.8335 24.2326 67.6259 24.2326C67.2234 24.2326 66.955 24.2327 66.5525 24.0985C65.479 23.8301 64.8081 22.8908 64.6739 21.8174C64.6739 21.2807 64.6739 20.8782 64.6739 20.3415C64.6739 18.9997 64.6739 17.792 64.6739 16.4502C64.6739 16.316 64.6739 16.0477 64.6739 15.7793C67.3575 15.2426 69.907 14.8401 72.5906 14.3034C72.8589 13.3641 72.9931 12.4248 73.2615 11.4855C73.9324 8.53359 74.7374 5.58163 75.4083 2.76385C75.8109 1.42205 76.616 0.61696 77.9578 0.48278C77.9578 0.48278 78.0919 0.482813 78.0919 0.348633C81.0439 0.482813 83.8617 0.48278 86.5453 0.48278Z" fill="black"/>
<path d="M147.061 55.094C145.854 56.4358 144.512 57.7776 142.902 58.851C139.816 60.9979 136.327 62.3397 132.704 62.8764C130.96 63.1447 129.216 63.279 127.471 63.4131C121.836 63.5473 116.737 61.9371 112.309 58.4485C109.491 56.1674 107.344 53.0813 106.002 49.7268C105.063 47.4457 104.392 45.0305 104.124 42.4811C103.856 40.6026 103.856 38.8582 103.99 36.9797C104.124 33.3568 104.929 29.8682 106.539 26.5137C109.223 20.8781 113.651 17.1211 119.689 15.1084C121.701 14.4375 123.714 14.0349 125.861 13.9007C127.471 13.7666 129.081 13.7666 130.692 13.7666C136.864 14.035 142.231 16.316 146.659 20.4756C146.793 20.6098 146.793 20.6098 146.927 20.744C146.793 20.8781 146.659 21.0123 146.525 21.1465C145.451 22.4883 144.378 23.9642 143.304 25.306C142.902 25.7086 142.634 26.1111 142.231 26.5137C141.56 27.1846 140.755 27.4529 139.95 27.3187C139.279 27.3187 138.608 27.1846 137.937 26.7821C137.266 26.3795 136.595 25.9769 135.925 25.5744C134.717 24.9035 133.375 24.3668 132.033 24.2326C130.021 23.9643 128.008 23.9642 126.129 24.6351C124.117 25.306 122.641 26.6479 121.567 28.3922C120.762 29.734 120.225 31.3441 119.957 32.9543C119.286 36.5772 119.286 40.2001 120.091 43.8229C120.494 45.8356 121.299 47.8482 122.775 49.4584C124.251 51.0686 125.995 52.142 128.276 52.4104C129.886 52.6787 131.497 52.5445 133.107 52.142C134.314 51.8736 135.522 51.2028 136.461 50.5319C137.132 50.1294 137.669 49.5926 138.34 49.1901C139.413 48.385 140.621 48.385 141.963 48.6534C142.499 48.7875 142.902 49.1901 143.304 49.5926C144.646 51.2028 146.122 52.9471 147.464 54.5573C146.927 54.8257 147.061 54.9598 147.061 55.094C147.061 54.9598 147.061 54.9598 147.061 55.094Z" fill="black"/>
<path d="M0 35.3691C0 35.235 0.134188 35.1008 0.134188 34.9666C0.402548 33.8932 0.939242 32.9539 1.74432 32.1489C2.68358 31.0754 3.75704 30.2704 4.83048 29.4653C7.51408 27.5868 10.3318 26.1107 13.418 25.3056C13.9547 25.1715 14.3572 25.0374 14.894 25.0374C15.0281 25.4399 15.0281 61.8026 14.894 62.4735C14.7598 62.4735 14.6256 62.4735 14.4914 62.4735C9.79511 62.4735 5.09883 62.4735 0.536711 62.4735C0.402531 62.4735 0.13418 62.4735 0 62.3393C0 53.4835 0 44.4934 0 35.3691Z" fill="black"/>
<path d="M60.5151 19.9388C60.3809 20.073 60.3809 20.2072 60.2467 20.3414C59.1733 21.8174 58.234 23.4275 57.1606 24.9035C57.0264 25.0377 57.0264 25.1719 56.8922 25.1719C56.2213 26.2453 55.1478 26.6478 53.9402 26.5137C53.2693 26.5137 52.5984 26.2453 52.0617 26.1111C50.5857 25.5744 49.244 24.9035 47.768 24.501C45.7553 23.8301 43.7426 23.6958 41.7299 23.9642C40.7906 24.0984 39.9855 24.3668 39.1805 24.9035C37.9728 25.7086 37.5703 27.1846 37.8387 28.5264C37.9728 29.1972 38.3754 29.5998 38.9121 30.0023C39.583 30.539 40.3881 31.0757 41.3273 31.3441C42.9375 31.8808 44.5477 32.4175 46.1578 32.9543C48.5731 33.7593 50.9883 34.5644 53.4035 35.6379C55.282 36.5771 57.0264 37.6505 58.3682 39.3949C59.8442 41.1392 60.6492 43.1519 60.7834 45.433C60.9176 47.9824 60.6492 50.5319 59.71 52.9471C58.3682 56.1674 56.0871 58.5826 53.001 60.1928C50.8541 61.4004 48.4389 62.0713 46.0236 62.6081C44.0109 63.0106 42.1324 63.1447 40.1197 63.1447C34.7525 63.0105 29.6537 61.8029 24.9574 59.1193C24.1523 58.7168 23.4814 58.1801 22.8105 57.6434C22.6764 57.5092 22.5422 57.375 22.2738 57.2409C22.408 57.1067 22.408 56.9725 22.5422 56.7041C23.4814 55.2281 24.5549 53.6179 25.4941 52.142C25.6283 51.8736 25.8967 51.6053 26.0308 51.3369C26.8359 50.3977 27.9093 49.861 29.117 49.861C30.1904 49.861 31.1297 50.1293 31.9347 50.5319C33.0082 51.0686 33.9475 51.6052 35.0209 52.142C37.0336 53.0812 39.0463 53.4838 41.3273 53.3496C42.4008 53.3496 43.3401 53.2154 44.4135 52.8129C45.7553 52.2761 46.6945 51.337 46.8287 49.861C46.9629 48.7875 46.6945 47.7141 45.8894 46.909C45.2185 46.2381 44.2793 45.8355 43.4742 45.433C41.8641 44.7621 40.2539 44.3596 38.6437 43.8229C36.0943 43.0178 33.5449 42.2127 31.1297 41.0051C28.1777 39.5291 25.8967 37.248 24.689 34.0277C24.2865 32.9543 24.0181 31.7467 23.884 30.539C23.6156 27.7213 24.0181 24.9035 25.3599 22.2199C26.7017 19.6705 28.5802 17.792 31.1297 16.316C33.4107 14.9742 35.9601 14.1691 38.6437 13.7666C40.7906 13.4982 42.9375 13.364 45.0844 13.4982C50.049 13.7666 54.6111 15.1084 58.7707 18.0603C59.3074 18.8654 59.8442 19.4021 60.5151 19.9388Z" fill="black"/>
<path d="M0.268551 25.9773C0.53691 25.038 0.939466 24.0988 1.20783 23.0254C2.0129 20.6102 2.95215 18.1949 3.75723 15.6455C4.15977 14.4379 5.09903 13.767 6.44083 13.6328C6.70919 13.6328 7.11174 13.6328 7.3801 13.6328C9.66116 13.6328 12.0764 13.6328 14.3574 13.6328C14.4916 13.6328 14.76 13.6328 15.0283 13.6328C15.0283 15.3772 15.0283 17.1214 15.0283 18.8658C14.3574 19 13.6865 19.1341 13.0156 19.2683C9.2586 19.9392 5.63577 21.4152 2.68381 23.8304C2.01291 24.3672 1.34201 25.038 0.671115 25.5748C0.536935 25.7089 0.402739 25.8431 0.402739 25.9773C0.402739 26.1115 0.268551 25.9773 0.268551 25.9773Z" fill="black"/>
<path d="M58.3686 90.5173C57.966 90.5173 57.5634 90.5173 57.2951 90.5173C57.0267 90.5173 56.8926 90.249 56.7584 90.1148C55.9533 88.9072 55.1482 87.6996 54.3432 86.4919C53.6723 85.4185 52.8672 84.345 52.1963 83.2716C52.0621 83.1374 51.9279 83.0033 51.7937 82.8691C51.7937 83.4058 51.7937 83.8083 51.7937 84.345C51.7937 84.8817 51.7937 85.2843 51.7937 85.8211C51.7937 86.3578 51.7937 86.8945 51.7937 87.4312C51.7937 87.9679 51.7937 88.3705 51.7937 88.9072C51.7937 89.4439 51.7937 89.8464 51.7937 90.5173C51.5254 90.5173 51.3912 90.5173 51.1228 90.5173C50.9887 90.5173 50.7203 90.5173 50.5861 90.5173C50.4519 90.1148 50.452 81.9298 50.452 80.588C50.8545 80.4538 51.257 80.4538 51.6596 80.588C51.7937 80.588 51.9279 80.8563 52.0621 80.9905C53.5381 83.1374 54.8799 85.2843 56.3559 87.4312C56.49 87.6996 56.7584 87.9679 56.8926 88.2363C57.0267 87.6996 56.8926 87.1628 56.8926 86.6261C56.8926 86.0894 56.8926 85.6869 56.8926 85.1502C56.8926 84.6134 56.8926 84.0767 56.8926 83.54C56.8926 83.0033 56.8926 82.6008 56.8926 82.064C56.8926 81.5273 56.8926 81.1248 56.8926 80.4539C57.1609 80.4539 57.2951 80.4539 57.5635 80.4539C57.6976 80.4539 57.966 80.4539 58.2344 80.4539C58.3685 83.8084 58.3686 87.1628 58.3686 90.5173Z" fill="black"/>
<path d="M128.545 80.588C128.545 80.4538 128.545 80.4538 128.545 80.588C129.887 80.4538 129.887 80.4539 130.424 81.3931C131.766 83.4058 133.241 85.5527 134.583 87.5654C134.717 87.6996 134.852 87.8337 134.986 87.9679C134.986 85.4185 134.986 83.0033 134.986 80.4539C135.388 80.4539 135.791 80.4539 136.328 80.4539C136.328 83.8084 136.328 87.0286 136.328 90.3831C135.925 90.3831 135.523 90.3831 135.254 90.3831C135.12 90.3831 134.986 90.249 134.852 90.1148C134.583 89.7123 134.315 89.3097 134.047 89.0413C132.705 87.1628 131.497 85.1501 130.155 83.2716C130.021 83.1374 129.887 83.0033 129.753 82.8691C129.753 85.4185 129.753 87.8337 129.753 90.5173C129.35 90.5173 128.948 90.5173 128.545 90.5173C128.411 90.1148 128.411 81.3931 128.545 80.588Z" fill="black"/>
<path d="M65.0769 90.5173C65.0769 87.1628 65.0769 83.8084 65.0769 80.4539C65.211 80.4539 65.3452 80.4539 65.4794 80.4539C66.687 80.4539 67.8946 80.4539 69.2364 80.4539C71.3833 80.4539 72.7251 81.5273 73.1276 83.54C73.5302 85.016 73.396 86.4919 72.8593 87.9679C72.3225 89.4439 71.2491 90.2489 69.639 90.3831C68.163 90.5173 66.687 90.5173 65.0769 90.5173ZM66.4186 89.1755C66.5528 89.1755 66.5528 89.1755 66.687 89.1755C67.4921 89.1755 68.2972 89.1755 69.1022 89.1755C70.3099 89.1755 71.1149 88.5046 71.5175 87.297C71.92 86.2236 71.92 85.0159 71.6517 83.9425C71.6517 83.6741 71.5175 83.4058 71.3833 83.1375C70.9807 82.3324 70.444 81.6614 69.3706 81.6614C68.5655 81.6614 67.8946 81.6615 67.0895 81.5273C66.8212 81.5273 66.5528 81.5273 66.2845 81.5273C66.4186 84.2109 66.4186 86.7603 66.4186 89.1755Z" fill="black"/>
<path d="M20.6632 85.4189C20.6632 84.748 20.7973 83.9429 21.0657 83.272C21.8708 81.1251 23.8835 79.9175 26.0304 80.32C28.5798 80.5884 29.9216 82.4669 30.1899 84.8822C30.3241 86.0898 30.1899 87.1632 29.519 88.2366C28.4456 90.2493 25.8962 90.9203 24.5544 90.5177C21.8708 89.981 20.7973 87.8341 20.6632 85.8214C20.6632 85.6872 20.6632 85.5531 20.6632 85.4189ZM22.005 85.4189C22.1391 85.9556 22.1391 86.4923 22.1391 86.8948C22.4075 88.3708 23.6151 89.3101 24.9569 89.4443C26.8354 89.5785 27.9089 88.6392 28.3114 87.5657C28.8481 86.0898 28.8481 84.6138 28.1772 83.1378C27.6405 81.9302 26.2987 81.2593 24.9569 81.3935C23.6151 81.5277 22.5417 82.3327 22.1391 83.6745C22.1391 84.3454 22.005 84.8822 22.005 85.4189Z" fill="black"/>
<path d="M112.845 85.4192C112.845 84.7483 112.979 84.0774 113.114 83.2723C113.784 81.1254 115.931 79.9178 118.212 80.1862C120.628 80.4545 122.104 82.3331 122.372 84.7483C122.506 85.8218 122.372 86.8952 121.835 87.9686C120.896 89.8471 118.749 90.7864 116.736 90.3838C113.919 89.9813 112.845 87.5661 112.845 85.4192ZM114.187 85.4192C114.321 85.9559 114.321 86.4926 114.455 86.8952C114.724 88.237 115.797 89.3104 117.139 89.4446C118.749 89.5788 119.957 89.0421 120.628 87.8344C121.433 86.2243 121.299 84.6141 120.493 83.1382C119.823 81.9305 118.749 81.3938 117.273 81.528C115.931 81.6622 114.992 82.333 114.59 83.6748C114.321 84.2115 114.321 84.8825 114.187 85.4192Z" fill="black"/>
<path d="M85.0697 87.4312C83.5937 87.4312 82.2519 87.4312 80.9101 87.4312C80.5076 88.3705 80.2392 89.4439 79.8367 90.3831C79.3 90.3831 78.8974 90.3831 78.3607 90.3831C79.5683 87.0286 80.9101 83.8084 82.1177 80.4539C82.3861 80.4539 82.6544 80.4539 82.9228 80.4539C83.1912 80.4539 83.3253 80.4539 83.5937 80.4539C84.9355 83.8084 86.2773 87.0286 87.6191 90.3831C87.0824 90.3831 86.6798 90.3831 86.1431 90.3831C85.8747 89.4439 85.4722 88.5047 85.0697 87.4312ZM84.533 86.3577C83.9962 84.7476 83.4595 83.2716 82.9228 81.7957C82.3861 83.2716 81.8494 84.8817 81.3127 86.3577C82.3861 86.3577 83.4595 86.3577 84.533 86.3577Z" fill="black"/>
<path d="M42.6685 80.4539C43.0711 80.4539 43.4736 80.4539 44.0103 80.4539C44.0103 80.588 44.0103 80.7222 44.0103 80.8564C44.0103 82.7349 44.0103 84.6134 44.0103 86.4919C44.0103 87.0287 43.8762 87.6996 43.742 88.2363C43.4736 89.1755 42.9369 89.8464 41.9976 90.249C40.6558 90.7857 39.314 90.7857 37.9722 90.249C37.1671 89.8464 36.6304 89.3097 36.3621 88.5046C36.2279 88.1021 36.0937 87.8338 36.0937 87.4312C36.0937 85.1502 36.0937 82.8691 36.0937 80.588C36.4963 80.588 36.8988 80.588 37.3013 80.588C37.3013 80.7222 37.3013 80.9906 37.3013 81.1248C37.3013 82.8691 37.3013 84.4792 37.3013 86.2236C37.3013 86.6261 37.3013 87.1628 37.4355 87.5654C37.5697 88.6388 38.1064 89.1756 39.1798 89.4439C39.7166 89.5781 40.3875 89.5781 40.9242 89.3097C41.5951 89.1755 42.1318 88.6388 42.266 87.9679C42.4002 87.4312 42.4001 86.8945 42.5343 86.2236C42.5343 84.4792 42.5343 82.8691 42.5343 81.1248C42.6685 80.9906 42.6685 80.7222 42.6685 80.4539Z" fill="black"/>
<path d="M14.8935 80.4539C14.8935 80.8564 14.8935 81.2589 14.8935 81.6614C13.1492 81.6614 11.4049 81.6614 9.52635 81.6614C9.52635 82.7349 9.52635 83.6742 9.52635 84.7476C11.0023 84.7476 12.4783 84.7476 14.0885 84.7476C14.0885 85.1502 14.0885 85.5527 14.0885 85.9552C12.6125 86.0894 11.1365 85.9552 9.52635 85.9552C9.52635 87.4312 9.52635 88.9072 9.52635 90.5173C9.12381 90.5173 8.72127 90.5173 8.18456 90.5173C8.18456 87.1628 8.18456 83.9425 8.18456 80.588C10.4656 80.4538 12.6125 80.4539 14.8935 80.4539Z" fill="black"/>
<path d="M99.159 80.4539C99.159 80.8564 99.159 81.1247 99.159 81.6614C98.0856 81.6614 97.0122 81.6614 95.9387 81.6614C95.9387 84.6134 95.9387 87.5653 95.9387 90.3831C95.5362 90.3831 95.1336 90.3831 94.5969 90.3831C94.5969 87.4312 94.5969 84.6134 94.5969 81.6614C93.5235 81.6614 92.4501 81.6614 91.3766 81.6614C91.3766 81.2589 91.3766 80.8564 91.3766 80.588C91.7792 80.4538 98.0856 80.4539 99.159 80.4539Z" fill="black"/>
<path d="M106.539 80.4539C106.539 83.8084 106.539 87.0286 106.539 90.3831C106.136 90.3831 105.734 90.3831 105.331 90.3831C105.331 87.0286 105.331 83.8084 105.331 80.4539C105.734 80.4539 106.136 80.4539 106.539 80.4539Z" fill="black"/>
</svg>
