<svg width="217" height="68" viewBox="0 0 217 68" fill="none" xmlns="http://www.w3.org/2000/svg">
<path d="M73.1235 9.89585H72.0933V9.17468C72.0933 8.55655 72.2994 8.04143 72.8145 7.62934C73.3296 7.11423 73.9477 6.80518 74.7719 6.80518C75.287 6.80518 75.8021 6.90819 76.2142 7.11423C76.6263 7.32028 77.0384 7.73237 77.2444 8.14446C77.4505 8.55655 77.5535 8.96865 77.5535 9.38074V9.99885C77.5535 10.514 77.4505 11.1321 77.2444 11.6472C77.0384 12.1623 76.7293 12.5744 76.3172 12.9865C76.0081 13.1926 75.8021 13.3986 75.6991 13.5016L75.8021 13.6046L75.9051 13.7076L76.0081 13.8107L76.2142 14.0168L76.5233 14.4288L75.8021 14.7379L75.493 14.4288C75.39 14.3258 75.184 14.1197 74.9779 13.9137C74.8749 13.9137 74.6689 14.0167 74.3598 14.2228L73.9477 14.3258H73.7416H73.5356H73.4326C73.1235 14.3258 72.9175 14.2228 72.6084 14.1198C72.2993 13.9137 72.1963 13.7077 72.0933 13.5016L71.9902 13.2956V13.0895C71.9902 12.6774 72.0933 12.3684 72.2994 12.0593C72.5054 11.8533 72.8144 11.6472 73.2265 11.6472C73.4326 11.6472 73.6386 11.6472 73.8447 11.7502H73.9477H74.0507C74.2567 11.8533 74.5658 11.9563 74.7719 12.1623L74.8749 12.2654L74.9779 12.3684C74.9779 12.3684 75.0809 12.4714 75.0809 12.5744C75.493 12.3684 75.9051 11.8532 76.3172 11.1321C76.5232 10.617 76.6263 10.1018 76.6263 9.58674V9.17468C76.6263 8.45353 76.4203 7.93841 75.9051 7.62934C75.4931 7.4233 75.184 7.21723 74.8749 7.21723C74.7719 7.21723 74.6689 7.21723 74.6689 7.21723H74.4628C74.0507 7.32025 73.6386 7.52631 73.4326 7.9384C73.3296 8.14444 73.2265 8.4535 73.2265 8.76257L73.1235 9.89585ZM72.8145 13.3986C72.8145 13.6046 72.9175 13.7077 73.2265 13.8107H73.4326C73.7416 13.8107 73.9477 13.7077 74.2567 13.3986C74.1537 13.1925 74.0507 13.0896 73.8447 12.9865C73.6386 12.8835 73.4326 12.7805 73.2265 12.7805C73.1235 12.7805 72.9175 12.7805 72.9175 12.8835C72.8144 13.0895 72.8145 13.1925 72.8145 13.3986Z" fill="black"/>
<path d="M85.0743 11.1318C85.0743 11.853 84.9713 12.4711 84.8683 12.8832C84.4562 13.9135 83.632 14.4286 82.1897 14.4286C80.7474 14.4286 79.9232 13.9135 79.5111 12.9863C79.3051 12.5742 79.202 11.853 79.202 11.1318V6.80493H80.2323V8.45327H85.0743V9.3805H80.2323V11.1318C80.2323 11.6469 80.2323 12.059 80.3353 12.3681C80.5414 13.1923 81.1595 13.6044 82.0867 13.6044C82.9109 13.6044 83.426 13.3984 83.735 12.9863C83.9411 12.6772 84.1472 12.0591 84.1472 11.2349V10.4107H85.1774L85.0743 11.1318Z" fill="black"/>
<path d="M92.5947 11.853H93.419V12.6772H92.5947V14.4286H91.6676V10.1016C91.6676 9.27742 91.5645 8.65934 91.2555 8.35027C90.9464 7.93818 90.4313 7.7321 89.6071 7.7321C88.6799 7.7321 88.1648 8.04119 87.8557 8.65933C87.7527 8.96839 87.6497 9.48347 87.6497 10.1016V14.4286H86.6194V10.1016C86.6194 9.38045 86.7225 8.86536 86.8255 8.45327C87.2376 7.32002 88.1648 6.80493 89.6071 6.80493C91.1525 6.80493 92.0797 7.42305 92.3888 8.65933C92.4918 9.07142 92.4917 9.58649 92.4917 10.1016L92.5947 11.853Z" fill="black"/>
<path d="M93.831 6.80493H96.4066V11.1318C96.4066 11.6469 96.4066 12.059 96.5096 12.3681C96.7157 13.1923 97.3338 13.6044 98.261 13.6044C99.0851 13.6044 99.6003 13.3984 99.9094 12.9863C100.115 12.6772 100.321 12.0591 100.321 11.2349V9.79255H101.352V11.2349C101.352 11.9561 101.249 12.5742 101.146 12.9863C100.734 14.0165 99.9093 14.5316 98.467 14.5316C97.0247 14.5316 96.2005 14.0165 95.7884 13.0893C95.5824 12.6772 95.4794 11.9561 95.4794 11.2349V7.83516H93.831V6.80493Z" fill="black"/>
<path d="M107.945 13.8102C107.739 14.0163 107.43 14.2223 106.915 14.3254C106.503 14.4284 106.091 14.5314 105.678 14.5314C104.236 14.5314 103.412 14.0163 103 13.0891C102.794 12.677 102.691 11.9558 102.691 11.2347V6.90771H103.721V11.2347C103.721 11.7498 103.721 12.1619 103.824 12.471C104.03 13.2951 104.648 13.7072 105.575 13.7072C106.4 13.7072 106.915 13.5012 107.224 13.0891C107.43 12.78 107.636 12.1619 107.636 11.3377V7.01071H108.666V13.2951L109.593 14.2223L108.975 14.9435L107.945 13.8102Z" fill="black"/>
<path d="M116.084 11.4407H115.054V10.2045C115.054 9.38027 114.951 8.76212 114.641 8.45305C114.332 8.04096 113.817 7.83494 112.993 7.83494C112.066 7.83494 111.551 8.14397 111.242 8.76211C111.139 9.07118 111.036 9.58632 111.036 10.2045V14.5314H110.005V10.2045C110.005 9.48329 110.108 8.96814 110.212 8.55605C110.624 7.4228 111.551 6.90771 112.993 6.90771C114.538 6.90771 115.466 7.52584 115.775 8.76211C115.878 9.1742 115.878 9.68934 115.878 10.2045L116.084 11.4407Z" fill="black"/>
<path d="M123.501 14.4286H122.471V12.1621C122.368 12.4711 121.853 12.6772 120.926 12.7802C120.823 12.7802 120.72 12.7802 120.617 12.7802C119.174 12.7802 118.247 12.2651 117.938 11.3379C117.732 10.9258 117.629 10.3077 117.629 9.48349V6.80493H118.659V9.48349C118.659 9.99861 118.659 10.4107 118.762 10.7198C118.968 11.544 119.587 11.9561 120.514 11.9561C121.235 11.9561 121.853 11.75 122.162 11.441C122.368 11.2349 122.471 10.6167 122.471 9.58649V8.76232H123.501V14.4286V14.4286Z" fill="black"/>
<path d="M130.919 14.4286H129.889V10.1016C129.889 9.27742 129.786 8.65934 129.477 8.35027C129.168 7.93818 128.653 7.7321 127.829 7.7321C126.901 7.7321 126.386 8.04119 126.077 8.65933C125.974 8.96839 125.871 9.48347 125.871 10.1016V14.4286H124.841V10.1016C124.841 9.38045 124.944 8.86536 125.047 8.45327C125.459 7.32002 126.386 6.80493 127.829 6.80493C129.374 6.80493 130.301 7.42305 130.61 8.65933C130.713 9.07142 130.713 9.58649 130.713 10.1016L130.919 14.4286Z" fill="black"/>
<path d="M132.671 6.90771H133.701V9.48328H135.556V10.3074H133.701V14.4284H132.671V6.90771Z" fill="black"/>
<path d="M143.9 10.6165V12.3679C143.9 12.78 143.797 13.1921 143.591 13.5012C143.385 13.8103 143.076 14.1193 142.664 14.3254C142.252 14.5314 141.84 14.6344 141.324 14.6344H141.015C140.912 14.6344 140.706 14.6344 140.603 14.6344C140.397 14.6344 140.294 14.6344 140.088 14.5314C139.47 14.3254 139.058 14.0163 138.852 13.5012C138.749 13.1921 138.749 12.883 138.749 12.3679C138.749 11.1316 139.058 10.4105 139.676 10.2045C139.985 10.1014 140.397 9.99839 141.015 9.99839H142.87V9.27722C142.87 8.76211 142.767 8.35004 142.458 8.144C142.252 7.93795 141.84 7.83494 141.324 7.83494H139.47C139.367 7.83494 139.367 7.83494 139.367 7.83494H139.264C138.44 7.83494 137.925 8.35002 137.925 9.27722V14.6344H136.894V8.96817C136.894 8.55608 136.997 8.24701 137.1 7.93794C137.513 7.21678 138.234 6.90771 139.367 6.90771H141.324C142.355 6.90771 143.179 7.31978 143.488 8.04094C143.694 8.35001 143.797 8.7621 143.797 9.07117V9.8954H144.312V10.7196L143.9 10.6165ZM141.015 10.6165C140.397 10.6165 139.985 10.8226 139.882 11.2347V11.3377V11.6467C139.882 11.7498 139.882 11.9558 139.882 12.2649C139.882 12.78 139.985 13.1921 140.088 13.3981C140.191 13.5012 140.294 13.6042 140.5 13.7072L140.809 13.8102H141.221C142.252 13.8102 142.87 13.3981 142.87 12.3679V10.7196H141.015V10.6165Z" fill="black"/>
<path d="M146.27 8.65933H145.239C145.239 7.93817 145.548 7.42305 146.167 7.11399C146.476 6.90794 146.991 6.80493 147.506 6.80493C148.227 6.80493 148.742 6.90792 149.154 7.21698C149.669 7.52605 149.875 8.04117 149.875 8.76232C149.875 9.58651 149.566 10.2047 148.948 10.4107C149.257 10.4107 149.566 10.7197 149.772 11.1318C149.978 11.4409 150.081 11.853 150.081 12.2651C150.081 13.1923 149.669 13.8104 148.845 14.2225C148.433 14.4286 147.918 14.5316 147.403 14.5316C146.991 14.5316 146.579 14.4286 146.27 14.3256C145.651 14.1195 145.239 13.7074 144.93 13.1923C144.827 12.9862 144.724 12.6772 144.724 12.3681H145.755C145.755 12.7802 145.961 13.0893 146.27 13.3983C146.579 13.6044 146.888 13.7074 147.403 13.8105C147.918 13.8105 148.33 13.7074 148.639 13.3983C148.948 13.0893 149.154 12.7802 149.154 12.2651C149.154 11.75 149.051 11.4409 148.742 11.1318C148.433 10.9258 148.124 10.7198 147.609 10.7198H145.136V9.99861H147.609C148.536 9.99861 149.051 9.58651 149.051 8.76232C149.051 8.35023 148.948 8.0412 148.639 7.83516C148.33 7.62911 148.021 7.6291 147.609 7.6291C147.506 7.6291 147.506 7.6291 147.403 7.6291H147.3H147.094C146.579 7.83515 146.27 8.14421 146.27 8.65933Z" fill="black"/>
<path d="M157.602 14.4286H156.572V10.1016C156.572 9.27742 156.469 8.65934 156.16 8.35027C155.85 7.93818 155.335 7.7321 154.511 7.7321C153.584 7.7321 153.069 8.04119 152.76 8.65933C152.657 8.96839 152.554 9.48347 152.554 10.1016V14.4286H151.524V10.1016C151.524 9.38045 151.627 8.86536 151.73 8.45327C152.142 7.32002 153.069 6.80493 154.511 6.80493C156.057 6.80493 156.984 7.42305 157.293 8.65933C157.396 9.07142 157.396 9.58649 157.396 10.1016L157.602 14.4286Z" fill="black"/>
<path d="M159.354 6.90771H160.384V9.48328H162.238V10.3074H160.384V14.4284H159.354V6.90771Z" fill="black"/>
<path d="M163.062 6.80493H165.638V11.1318C165.638 11.6469 165.638 12.059 165.741 12.3681C165.947 13.1923 166.565 13.6044 167.492 13.6044C168.316 13.6044 168.831 13.3984 169.141 12.9863C169.347 12.6772 169.553 12.0591 169.553 11.2349V9.79255H170.583V11.2349C170.583 11.9561 170.48 12.5742 170.377 12.9863C169.965 14.0165 169.141 14.5316 167.698 14.5316C166.256 14.5316 165.432 14.0165 165.02 13.0893C164.814 12.6772 164.711 11.9561 164.711 11.2349V7.83516H163.062V6.80493Z" fill="black"/>
<path d="M171.098 6.80493H173.674V11.1318C173.674 11.6469 173.674 12.059 173.777 12.3681C173.983 13.1923 174.601 13.6044 175.528 13.6044C176.352 13.6044 176.867 13.3984 177.176 12.9863C177.382 12.6772 177.588 12.0591 177.588 11.2349V9.79255H178.619V11.2349C178.619 11.9561 178.516 12.5742 178.413 12.9863C178.001 14.0165 177.176 14.5316 175.734 14.5316C174.292 14.5316 173.468 14.0165 173.056 13.0893C172.849 12.6772 172.746 11.9561 172.746 11.2349V7.83516H171.098V6.80493Z" fill="black"/>
<path d="M185.933 11.1318C185.933 11.853 185.83 12.4711 185.727 12.8832C185.315 13.9135 184.491 14.4286 183.048 14.4286C181.606 14.4286 180.782 13.9135 180.37 12.9863C180.164 12.5742 180.061 11.853 180.061 11.1318V6.80493H181.091V8.45327H185.933V9.3805H181.091V11.1318C181.091 11.6469 181.091 12.059 181.194 12.3681C181.4 13.1923 182.018 13.6044 182.945 13.6044C183.77 13.6044 184.285 13.3984 184.594 12.9863C184.8 12.6772 185.006 12.0591 185.006 11.2349V10.4107H186.036L185.933 11.1318Z" fill="black"/>
<path d="M193.454 11.4407H192.424V10.2045C192.424 9.38027 192.321 8.76212 192.011 8.45305C191.702 8.04096 191.187 7.83494 190.363 7.83494C189.436 7.83494 188.921 8.14397 188.612 8.76211C188.509 9.07118 188.406 9.58632 188.406 10.2045V14.5314H187.375V10.2045C187.375 9.48329 187.478 8.96814 187.581 8.55605C187.994 7.4228 188.921 6.90771 190.363 6.90771C191.908 6.90771 192.836 7.52584 193.145 8.76211C193.248 9.1742 193.248 9.68934 193.248 10.2045L193.454 11.4407Z" fill="black"/>
<path d="M200.666 12.5742H199.635V11.853C199.635 11.2349 199.532 10.7198 199.429 10.4107C199.223 9.79259 198.605 9.48349 197.678 9.48349C196.957 9.48349 196.339 9.68954 196.029 9.99861C195.823 10.2047 195.72 10.4107 195.72 10.7198C195.72 10.9258 195.72 11.1319 195.72 11.5439V14.5316H194.69V6.80493H195.72V9.07138C195.823 8.86533 196.029 8.76235 196.545 8.65933C196.957 8.5563 197.266 8.55627 197.575 8.55627C199.017 8.55627 199.841 9.0714 200.253 9.99861C200.356 10.2047 200.459 10.5137 200.459 10.8228C200.459 11.1318 200.563 11.5439 200.563 11.853L200.666 12.5742Z" fill="black"/>
<path d="M80.8505 25.1431H79.8203V24.4219C79.8203 23.8038 79.7173 23.2886 79.6143 22.9796C79.4082 22.3614 78.7901 22.0524 77.8629 22.0524C77.1417 22.0524 76.5236 22.2585 76.2145 22.5675C76.0085 22.7736 75.9055 22.9796 75.9055 23.2887C75.9055 23.4947 75.9055 23.7008 75.9055 24.1129V27.1005H74.8752V19.3738H75.9055V21.6403C76.0085 21.4342 76.2145 21.3313 76.7296 21.2282C77.1417 21.1252 77.4508 21.1252 77.7599 21.1252C79.2022 21.1252 80.0263 21.6403 80.4384 22.5675C80.5415 22.7736 80.6445 23.0826 80.6445 23.3917C80.6445 23.7008 80.7475 24.1128 80.7475 24.4219L80.8505 25.1431Z" fill="black"/>
<path d="M81.6744 19.3738H84.2499V23.7007C84.2499 24.2159 84.2499 24.628 84.3529 24.937C84.559 25.7612 85.1771 26.1733 86.1043 26.1733C86.9285 26.1733 87.4437 25.9672 87.7527 25.5551C87.9588 25.2461 88.1648 24.628 88.1648 23.8038V22.3615H89.195V23.8038C89.195 24.525 89.092 25.143 88.989 25.5551C88.5769 26.5854 87.7527 27.1005 86.3104 27.1005C84.8681 27.1005 84.0439 26.5854 83.6318 25.6582C83.4258 25.2461 83.3227 24.525 83.3227 23.8038V20.404H81.6744V19.3738Z" fill="black"/>
<path d="M96.4066 27.1H95.3764V24.8335C95.2734 25.1426 94.7582 25.3486 93.831 25.4516C93.728 25.4516 93.625 25.4516 93.522 25.4516C92.0797 25.4516 91.1525 24.9365 90.8434 24.0093C90.6374 23.5972 90.5343 22.9791 90.5343 22.1549V19.4763H91.5645V22.1549C91.5645 22.67 91.5646 23.0821 91.6676 23.3912C91.8736 24.2153 92.4918 24.6275 93.419 24.6275C94.1401 24.6275 94.7583 24.4214 95.0673 24.1123C95.2734 23.9063 95.3764 23.2882 95.3764 22.2579V21.4337H96.4066V27.1Z" fill="black"/>
<path d="M103.824 27.1H102.794V22.7731C102.794 21.9489 102.691 21.3307 102.382 21.0217C102.073 20.6096 101.557 20.4035 100.733 20.4035C99.8061 20.4035 99.291 20.7126 98.9819 21.3307C98.8789 21.6398 98.7758 22.1549 98.7758 22.7731V27.1H97.7456V22.7731C97.7456 22.0519 97.8486 21.5367 97.9517 21.1247C98.3638 19.9914 99.291 19.4763 100.733 19.4763C102.279 19.4763 103.206 20.0944 103.515 21.3307C103.618 21.7428 103.618 22.2579 103.618 22.7731L103.824 27.1Z" fill="black"/>
<path d="M105.575 19.4763H106.606V22.0519H108.46V22.8761H106.606V26.997H105.575V19.4763Z" fill="black"/>
<path d="M115.878 23.5972H114.848V22.7731C114.848 21.9489 114.745 21.3307 114.435 21.0217C114.126 20.6096 113.611 20.4035 112.787 20.4035C111.86 20.4035 111.345 20.7126 111.036 21.3307C110.933 21.6398 110.83 22.1549 110.83 22.7731V24.5244H115.672V25.4516H110.83V27.1H109.799V22.7731C109.799 22.0519 109.902 21.5367 110.005 21.1247C110.418 19.9914 111.345 19.4763 112.787 19.4763C114.332 19.4763 115.26 20.0944 115.569 21.3307C115.672 21.7428 115.672 22.2579 115.672 22.7731V23.5972H115.878Z" fill="black"/>
<path d="M122.575 26.4824C122.369 26.6884 122.059 26.8945 121.544 26.9975C121.132 27.1005 120.72 27.2035 120.308 27.2035C118.866 27.2035 118.042 26.6884 117.629 25.7612C117.423 25.3491 117.32 24.628 117.32 23.9068V19.5798H118.351V23.9068C118.351 24.4219 118.351 24.834 118.454 25.1431C118.66 25.9673 119.278 26.3794 120.205 26.3794C121.029 26.3794 121.544 26.1733 121.853 25.7612C122.059 25.4521 122.266 24.834 122.266 24.0098V19.6829H123.296V25.9672L124.223 26.8945L123.605 27.6156L122.575 26.4824Z" fill="black"/>
<path d="M124.635 24.6277L125.562 24.5246C125.665 25.2458 125.974 25.7609 126.592 26.07L126.798 26.173L127.107 26.276H127.417H127.726C128.035 26.276 128.344 26.276 128.756 26.07C129.374 25.8639 129.683 25.4519 129.683 24.9368C129.683 24.4216 129.374 24.1126 128.756 23.9065C128.653 23.9065 128.241 23.7005 127.417 23.5975C126.695 23.3914 126.18 23.2884 125.974 23.0824C125.253 22.6703 124.944 22.1551 124.944 21.434C124.944 20.6098 125.356 19.9917 126.18 19.5796C126.592 19.3735 127.004 19.2705 127.52 19.2705C129.065 19.2705 129.889 19.8887 130.301 21.0219C130.301 21.1249 130.404 21.2279 130.404 21.434V21.537L129.477 21.64C129.374 20.7128 128.756 20.1977 127.623 20.1977C127.21 20.1977 126.798 20.3007 126.489 20.4037C126.077 20.6098 125.871 20.9189 125.871 21.331C125.871 21.7431 126.077 22.0521 126.489 22.2582C126.695 22.3612 127.004 22.4642 127.623 22.5672C128.447 22.7733 128.962 22.8763 129.271 23.0824C129.889 23.3914 130.301 23.8035 130.507 24.3186C130.61 24.5247 130.61 24.7307 130.61 24.8338C130.61 25.761 130.198 26.3791 129.271 26.7911C128.859 26.9972 128.344 27.1002 127.829 27.1002C126.489 27.1002 125.562 26.6882 125.047 25.864C124.738 25.5549 124.635 25.1428 124.635 24.6277Z" fill="black"/>
<path d="M137.822 27.1H136.791V22.7731C136.791 21.9489 136.688 21.3307 136.379 21.0217C136.07 20.6096 135.555 20.4035 134.731 20.4035C133.804 20.4035 133.289 20.7126 132.98 21.3307C132.876 21.6398 132.773 22.1549 132.773 22.7731V27.1H131.743V22.7731C131.743 22.0519 131.846 21.5367 131.949 21.1247C132.361 19.9914 133.289 19.4763 134.731 19.4763C136.276 19.4763 137.203 20.0944 137.513 21.3307C137.616 21.7428 137.616 22.2579 137.616 22.7731V27.1H137.822Z" fill="black"/>
<path d="M145.343 24.0093H144.313V22.7731C144.313 21.9489 144.21 21.3307 143.901 21.0217C143.591 20.6096 143.076 20.4035 142.252 20.4035C141.325 20.4035 140.81 20.7126 140.501 21.3307C140.398 21.6398 140.295 22.1549 140.295 22.7731V27.1H139.264V22.7731C139.264 22.0519 139.367 21.5367 139.47 21.1247C139.883 19.9914 140.81 19.4763 142.252 19.4763C143.797 19.4763 144.725 20.0944 145.034 21.3307C145.137 21.7428 145.137 22.2579 145.137 22.7731L145.343 24.0093Z" fill="black"/>
<path d="M154.923 20.7131L154.82 20.5071C154.717 20.404 154.511 20.301 154.408 20.301C154.305 20.301 154.305 20.301 154.202 20.301C154.099 20.301 153.996 20.404 153.79 20.5071C153.687 20.6101 153.687 20.6101 153.584 20.7131L150.7 24.1129L154.717 25.9673V27.7186H154.408V27.5126C154.305 26.9975 153.893 26.6884 153.172 26.3794L149.257 24.628L153.172 19.992C153.481 19.5799 153.893 19.3738 154.305 19.3738C154.408 19.3738 154.614 19.3738 154.82 19.4768C154.923 19.4768 154.923 19.4768 155.027 19.5798L154.923 20.7131Z" fill="black"/>
<path d="M161.723 25.1431H160.693V24.4219C160.693 23.8038 160.59 23.2886 160.487 22.9796C160.281 22.3614 159.663 22.0524 158.736 22.0524C158.014 22.0524 157.396 22.2585 157.087 22.5675C156.881 22.7736 156.778 22.9796 156.778 23.2887C156.778 23.4947 156.778 23.7008 156.778 24.1129V27.1005H155.748V19.3738H156.778V21.6403C156.881 21.4342 157.087 21.3313 157.602 21.2282C158.014 21.1252 158.323 21.1252 158.633 21.1252C160.075 21.1252 160.899 21.6403 161.311 22.5675C161.414 22.7736 161.517 23.0826 161.517 23.3917C161.517 23.7008 161.62 24.1128 161.62 24.4219L161.723 25.1431Z" fill="black"/>
<path d="M169.965 20.404H168.831V23.8038C168.831 24.525 168.728 25.04 168.625 25.4521C168.213 26.5854 167.389 27.1005 165.844 27.1005C165.226 27.1005 164.71 26.9975 164.195 26.7914C163.68 26.4824 163.268 26.1733 163.165 25.6582L163.062 25.3491L162.959 24.937C162.959 24.731 162.856 24.4219 162.856 23.9068V19.5798H163.886V23.9068C163.886 24.731 163.989 25.3491 164.298 25.6582C164.607 26.0703 165.122 26.2763 165.947 26.2763C166.874 26.2763 167.389 25.9673 167.698 25.3491C167.801 25.0401 167.904 24.5249 167.904 23.9068V19.5798H169.965V20.404Z" fill="black"/>
<path d="M170.48 19.3738H173.056V23.7007C173.056 24.2159 173.056 24.628 173.159 24.937C173.365 25.7612 173.983 26.1733 174.91 26.1733C175.734 26.1733 176.249 25.9672 176.558 25.5551C176.764 25.2461 176.971 24.628 176.971 23.8038V22.3615H178.001V23.8038C178.001 24.525 177.898 25.143 177.795 25.5551C177.383 26.5854 176.558 27.1005 175.116 27.1005C173.674 27.1005 172.85 26.5854 172.438 25.6582C172.231 25.2461 172.128 24.525 172.128 23.8038V20.404H170.48V19.3738Z" fill="black"/>
<path d="M184.594 26.4824C184.388 26.6884 184.079 26.8945 183.563 26.9975C183.151 27.1005 182.739 27.2035 182.327 27.2035C180.885 27.2035 180.061 26.6884 179.649 25.7612C179.442 25.3491 179.339 24.628 179.339 23.9068V19.5798H180.37V23.9068C180.37 24.4219 180.37 24.834 180.473 25.1431C180.679 25.9673 181.297 26.3794 182.224 26.3794C183.048 26.3794 183.563 26.1733 183.872 25.7612C184.079 25.4521 184.285 24.834 184.285 24.0098V19.6829H185.315V25.9672L186.242 26.8945L185.624 27.6156L184.594 26.4824Z" fill="black"/>
<path d="M191.909 22.7731C191.909 22.1549 191.806 21.6398 191.703 21.3307C191.497 20.7126 190.878 20.4035 189.951 20.4035C189.127 20.4035 188.612 20.6096 188.303 21.0217C188.097 21.3307 187.891 21.9489 187.891 22.7731V23.5972H186.861V22.7731C186.861 22.0519 186.964 21.5367 187.067 21.1247C187.479 19.9914 188.303 19.4763 189.848 19.4763C191.291 19.4763 192.115 19.9914 192.527 20.9186C192.63 21.1246 192.733 21.4338 192.733 21.7428C192.733 22.1549 192.836 22.464 192.836 22.7731V24.6275H193.66V25.6577H192.836V27.203H191.806L191.909 22.7731Z" fill="black"/>
<path d="M200.666 24.0093H199.635V22.7731C199.635 21.9489 199.532 21.3307 199.223 21.0217C198.914 20.6096 198.399 20.4035 197.575 20.4035C196.648 20.4035 196.133 20.7126 195.824 21.3307C195.72 21.6398 195.617 22.1549 195.617 22.7731V27.1H194.587V22.7731C194.587 22.0519 194.69 21.5367 194.793 21.1247C195.205 19.9914 196.133 19.4763 197.575 19.4763C199.12 19.4763 200.047 20.0944 200.357 21.3307C200.46 21.7428 200.46 22.2579 200.46 22.7731L200.666 24.0093Z" fill="black"/>
<path d="M207.362 26.4824C207.156 26.6884 206.847 26.8945 206.332 26.9975C205.919 27.1005 205.507 27.2035 205.095 27.2035C203.653 27.2035 202.829 26.6884 202.417 25.7612C202.211 25.3491 202.108 24.628 202.108 23.9068V19.5798H203.138V23.9068C203.138 24.4219 203.138 24.834 203.241 25.1431C203.447 25.9673 204.065 26.3794 204.992 26.3794C205.816 26.3794 206.332 26.1733 206.641 25.7612C206.847 25.4521 207.053 24.834 207.053 24.0098V19.6829H208.083V25.9672L209.01 26.8945L208.392 27.5126L207.362 26.4824Z" fill="black"/>
<path d="M216.428 20.404H215.295V23.8038C215.295 24.525 215.192 25.04 215.089 25.4521C214.677 26.5854 213.852 27.1005 212.307 27.1005C211.689 27.1005 211.174 26.9975 210.659 26.7914C210.144 26.4824 209.732 26.1733 209.629 25.6582L209.525 25.3491L209.422 24.937C209.422 24.731 209.319 24.4219 209.319 23.9068V19.5798H210.35V23.9068C210.35 24.731 210.453 25.3491 210.762 25.6582C211.071 26.0703 211.586 26.2763 212.41 26.2763C213.337 26.2763 213.852 25.9673 214.161 25.3491C214.264 25.0401 214.368 24.5249 214.368 23.9068V19.5798H216.428V20.404Z" fill="black"/>
<path d="M75.081 45.5416V38.021H80.5413V38.9482H76.1113V41.2147H80.2322V42.1419H76.1113V44.7175H80.7473V45.6446L75.081 45.5416Z" fill="black"/>
<path d="M82.0869 45.5416V38.021H83.1171L87.0319 43.8933V38.021H87.9591V45.5416H86.9289L83.014 39.6693V45.5416H82.0869Z" fill="black"/>
<path d="M91.5646 45.5416V38.9482H89.0921V38.021H95.0674V38.9482H92.5949V45.5416H91.5646Z" fill="black"/>
<path d="M96.0975 45.5416V38.021H101.558V38.9482H97.1278V41.2147H101.249V42.1419H97.1278V44.7175H101.764V45.6446L96.0975 45.5416Z" fill="black"/>
<path d="M103.103 45.5416V38.021H106.4C107.018 38.021 107.43 38.021 107.739 38.124C108.151 38.227 108.46 38.5361 108.769 38.8452C108.975 39.1542 109.078 39.5663 109.078 40.0814C109.078 41.2147 108.357 41.9359 106.915 42.1419C107.224 42.2449 107.43 42.4509 107.533 42.554C107.842 42.863 108.151 43.1721 108.357 43.5842L109.697 45.6446H108.46L107.43 44.0993C107.224 43.7902 107.018 43.4812 106.915 43.2751C106.503 42.76 106.194 42.451 105.782 42.348C105.679 42.348 105.473 42.348 105.267 42.348H104.133V45.6446L103.103 45.5416ZM104.133 41.3177H106.297C107.121 41.3177 107.739 41.1116 107.945 40.6996C108.048 40.4935 108.151 40.2875 108.151 39.9784C108.151 39.1542 107.636 38.7422 106.503 38.7422H104.133V41.3177V41.3177Z" fill="black"/>
<path d="M110.727 45.5416V38.021H113.612C114.127 38.021 114.436 38.021 114.745 38.124C115.466 38.227 115.981 38.6391 116.29 39.1542C116.393 39.4633 116.496 39.7724 116.496 40.1844C116.496 41.7298 115.569 42.451 113.715 42.451H111.757V45.5416H110.727ZM111.654 41.6268H113.612C114.745 41.6268 115.363 41.2147 115.363 40.2875C115.363 39.9784 115.26 39.7723 115.157 39.4633C114.951 39.2572 114.745 39.0512 114.539 38.9482C114.333 38.9482 114.024 38.8452 113.612 38.8452H111.654V41.6268Z" fill="black"/>
<path d="M117.732 45.5416V38.021H121.029C121.647 38.021 122.059 38.021 122.368 38.124C122.78 38.227 123.089 38.5361 123.399 38.8452C123.605 39.1542 123.708 39.5663 123.708 40.0814C123.708 41.2147 122.986 41.9359 121.544 42.1419C121.853 42.2449 122.059 42.4509 122.162 42.554C122.471 42.863 122.78 43.1721 122.986 43.5842L124.326 45.6446H123.089L122.059 44.0993C121.853 43.7902 121.647 43.4812 121.544 43.2751C121.132 42.76 120.823 42.451 120.411 42.348C120.308 42.348 120.102 42.348 119.896 42.348H118.762V45.6446L117.732 45.5416ZM118.659 41.3177H120.823C121.647 41.3177 122.265 41.1116 122.471 40.6996C122.574 40.4935 122.677 40.2875 122.677 39.9784C122.677 39.1542 122.162 38.7422 121.029 38.7422H118.659V41.3177V41.3177Z" fill="black"/>
<path d="M125.459 45.5416V38.021H126.489V45.5416H125.459Z" fill="black"/>
<path d="M127.828 43.1721L128.755 43.0691C128.858 43.7902 129.168 44.3053 129.786 44.6144C130.095 44.7174 130.507 44.8205 130.919 44.8205C131.743 44.8205 132.258 44.6144 132.567 44.2024C132.67 43.9963 132.773 43.7902 132.773 43.5842C132.773 43.0691 132.464 42.76 131.846 42.554C131.64 42.4509 131.125 42.3479 130.404 42.1419C129.786 42.0389 129.374 41.8328 129.064 41.7298C128.343 41.3177 128.034 40.8026 128.034 40.0814C128.034 39.6694 128.137 39.2572 128.343 38.9482C128.549 38.6391 128.858 38.4331 129.271 38.2271C129.683 38.021 130.095 38.021 130.61 38.021C131.743 38.021 132.567 38.3301 133.082 39.0512C133.288 39.3603 133.391 39.7724 133.494 40.1844L132.567 40.2875C132.464 39.3603 131.846 38.8452 130.713 38.8452C130.301 38.8452 129.889 38.9482 129.58 39.0512C129.167 39.2573 128.961 39.5663 128.961 39.9784C128.961 40.3905 129.167 40.6996 129.58 40.9056C129.786 41.0086 130.095 41.1117 130.713 41.2147C131.537 41.4207 132.052 41.5237 132.361 41.7298C133.185 42.1419 133.597 42.76 133.597 43.5842C133.597 43.9963 133.494 44.4084 133.185 44.7175C132.979 45.0265 132.67 45.3356 132.258 45.5416C131.846 45.7477 131.331 45.8507 130.816 45.8507C129.477 45.8507 128.549 45.4386 128.034 44.6144C128.034 44.0993 127.828 43.6872 127.828 43.1721Z" fill="black"/>
<path d="M135.143 45.5416V38.021H140.603V38.9482H136.173V41.2147H140.294V42.1419H136.173V44.7175H140.809V45.6446L135.143 45.5416Z" fill="black"/>
<path d="M145.239 45.5416V38.021H146.27V45.5416H145.239Z" fill="black"/>
<path d="M148.021 45.5416V38.021H149.051L152.966 43.8933V38.021H153.893V45.5416H152.863L148.948 39.6693V45.5416H148.021Z" fill="black"/>
<path d="M160.899 42.9659L161.929 43.1719C161.723 43.9961 161.414 44.6142 160.796 45.0263C160.281 45.4384 159.56 45.7475 158.735 45.7475C157.19 45.7475 156.16 45.1293 155.645 43.79C155.336 43.1719 155.233 42.4507 155.233 41.7296C155.233 40.0812 155.851 38.948 156.984 38.3298C157.499 38.0208 158.117 37.9177 158.838 37.9177C159.56 37.9177 160.178 38.1238 160.693 38.4328C161.208 38.8449 161.62 39.3601 161.723 40.0812L160.693 40.2873C160.384 39.2571 159.663 38.742 158.735 38.742C158.22 38.742 157.705 38.8449 157.293 39.154C156.881 39.4631 156.572 39.7722 156.469 40.2873C156.263 40.8024 156.263 41.2145 156.263 41.7296C156.263 43.0689 156.675 43.9961 157.396 44.5112C157.808 44.7172 158.22 44.8203 158.632 44.8203C159.972 44.8203 160.693 44.2021 160.899 42.9659Z" fill="black"/>
<path d="M168.11 38.021H169.141V42.348C169.141 43.0691 169.038 43.5842 168.934 43.9963C168.522 45.1295 167.698 45.6446 166.153 45.6446C164.711 45.6446 163.886 45.1296 163.474 44.2024C163.268 43.7903 163.165 43.0691 163.165 42.348V38.021H164.195V42.348C164.195 42.8631 164.195 43.2751 164.298 43.5842C164.505 44.4084 165.123 44.8205 166.05 44.8205C166.874 44.8205 167.389 44.6144 167.698 44.2024C167.904 43.8933 168.11 43.2751 168.11 42.451V38.021Z" fill="black"/>
<path d="M170.686 45.5416V38.021H173.467C174.601 38.021 175.322 38.33 175.631 38.9482C175.837 39.2572 175.94 39.5663 175.94 39.9784C175.94 40.6995 175.631 41.2147 174.91 41.5237C175.322 41.6268 175.734 41.8328 175.94 42.1419C176.146 42.451 176.352 42.863 176.352 43.2751C176.352 43.9963 176.043 44.6145 175.528 44.9235C175.116 45.2326 174.395 45.4386 173.467 45.4386L170.686 45.5416ZM171.716 41.2147H173.364C173.776 41.2147 174.086 41.2147 174.292 41.1117C174.807 41.0087 175.013 40.5966 175.013 40.0814C175.013 39.5663 174.807 39.1542 174.292 39.0512C174.086 38.9482 173.673 38.9482 173.158 38.9482H171.613L171.716 41.2147ZM171.716 44.7175H173.57C173.879 44.7175 174.086 44.7175 174.292 44.7175C175.013 44.6144 175.425 44.2023 175.425 43.4812C175.425 42.863 175.116 42.451 174.601 42.348C174.395 42.2449 173.982 42.2449 173.467 42.2449H171.716V44.7175Z" fill="black"/>
<path d="M176.867 45.5416L179.752 38.021H180.782L183.873 45.5416H182.74L181.813 43.2751H178.722L177.898 45.5416H176.867ZM179.134 42.451H181.709L180.885 40.3905C180.679 39.7724 180.473 39.2573 180.37 38.8452C180.267 39.3603 180.164 39.8754 179.958 40.2875L179.134 42.451Z" fill="black"/>
<path d="M185.831 45.5416V38.9482H183.358V38.021H189.333V38.9482H186.861V45.5416H185.831Z" fill="black"/>
<path d="M189.848 41.9356C189.848 40.8024 190.157 39.7722 190.775 39.051C191.393 38.3299 192.32 37.9177 193.454 37.9177C194.175 37.9177 194.793 38.1238 195.308 38.4328C195.823 38.7419 196.338 39.257 196.647 39.8752C196.956 40.4933 197.059 41.1115 197.059 41.9356C197.059 42.6568 196.956 43.275 196.647 43.8931C196.338 44.5112 195.926 45.0263 195.308 45.3354C194.793 45.6444 194.175 45.8505 193.454 45.8505C192.733 45.8505 192.114 45.6444 191.599 45.3354C190.981 45.0263 190.569 44.5112 190.26 43.8931C190.054 43.1719 189.848 42.5538 189.848 41.9356ZM190.878 41.9356C190.878 42.7598 191.084 43.481 191.496 43.9961C192.011 44.6142 192.63 44.8203 193.454 44.8203C194.278 44.8203 194.999 44.5112 195.411 43.8931C195.823 43.378 196.029 42.6568 196.029 41.7296C196.029 40.4933 195.617 39.5661 194.793 39.051C194.381 38.845 193.969 38.6389 193.454 38.6389C192.526 38.6389 191.908 38.948 191.496 39.5661C191.084 40.2873 190.878 41.0084 190.878 41.9356Z" fill="black"/>
<path d="M198.399 45.5416V38.021H201.696C202.314 38.021 202.726 38.021 203.035 38.124C203.447 38.227 203.756 38.5361 204.065 38.8452C204.271 39.1542 204.374 39.5663 204.374 40.0814C204.374 41.2147 203.653 41.9359 202.211 42.1419C202.52 42.2449 202.726 42.4509 202.829 42.554C203.138 42.863 203.447 43.1721 203.653 43.5842L204.992 45.6446H203.756L202.726 44.0993C202.52 43.7902 202.314 43.4812 202.211 43.2751C201.799 42.76 201.49 42.451 201.078 42.348C200.975 42.348 200.768 42.348 200.562 42.348H199.429V45.6446L198.399 45.5416ZM199.326 41.3177H201.49C202.314 41.3177 202.932 41.1116 203.138 40.6996C203.241 40.4935 203.344 40.2875 203.344 39.9784C203.344 39.1542 202.829 38.7422 201.696 38.7422H199.326V41.3177V41.3177Z" fill="black"/>
<path d="M78.0684 58.11V50.5894H83.1165V51.5165H78.9956V53.886H82.4984V54.8133H78.9956V58.213H78.0684V58.11Z" fill="black"/>
<path d="M84.1471 54.5045C84.1471 53.3712 84.4561 52.341 85.0742 51.6199C85.6924 50.8987 86.6196 50.4866 87.7529 50.4866C88.474 50.4866 89.0921 50.6926 89.6073 51.0017C90.1224 51.3108 90.6375 51.8259 90.9465 52.444C91.2556 53.0622 91.3586 53.6803 91.3586 54.5045C91.3586 55.2256 91.2556 55.8437 90.9465 56.4619C90.6375 57.08 90.2254 57.5951 89.6073 57.9042C89.0921 58.2133 88.474 58.4193 87.7529 58.4193C87.0317 58.4193 86.4135 58.2133 85.8984 57.9042C85.2803 57.5951 84.8682 57.08 84.5591 56.4619C84.25 55.7407 84.1471 55.1226 84.1471 54.5045ZM85.1773 54.5045C85.1773 55.3287 85.3833 56.0498 85.7954 56.5649C86.3105 57.1831 86.9287 57.3891 87.7529 57.3891C88.577 57.3891 89.2982 57.08 89.7102 56.4619C90.1223 55.9468 90.3284 55.2256 90.3284 54.2984C90.3284 53.0622 89.9163 52.135 89.0921 51.6199C88.68 51.4138 88.268 51.2077 87.7529 51.2077C86.8257 51.2077 86.2075 51.5168 85.7954 52.135C85.3833 52.8561 85.1773 53.5773 85.1773 54.5045Z" fill="black"/>
<path d="M97.5401 50.5894H98.5703V54.9163C98.5703 55.6374 98.4673 56.1526 98.3643 56.5647C97.9522 57.6979 97.128 58.213 95.5827 58.213C94.1403 58.213 93.3162 57.6979 92.9041 56.7707C92.698 56.3586 92.595 55.6374 92.595 54.9163V50.5894H93.6252V54.9163C93.6252 55.4314 93.6252 55.8435 93.7283 56.1525C93.9343 56.9767 94.5525 57.3888 95.4797 57.3888C96.3038 57.3888 96.8189 57.1828 97.128 56.7707C97.334 56.4616 97.5401 55.8435 97.5401 55.0193V50.5894Z" fill="black"/>
<path d="M100.218 58.11V50.5894H101.248L105.163 56.4616V50.5894H106.09V58.11H105.06L101.145 52.2377V58.11H100.218Z" fill="black"/>
<path d="M107.739 58.11V50.5894H110.315C110.933 50.5894 111.345 50.5893 111.654 50.6924C112.581 50.8984 113.302 51.5165 113.611 52.5467C113.817 53.0619 113.92 53.68 113.92 54.2981C113.92 55.2253 113.714 55.9465 113.405 56.5647C112.993 57.2858 112.375 57.8009 111.654 58.0069C111.345 58.11 110.933 58.11 110.418 58.11H107.739V58.11ZM108.769 57.2858H110.418C111.242 57.2858 111.86 57.0798 112.272 56.7707C112.787 56.2556 112.993 55.4314 112.993 54.4011C112.993 52.9588 112.581 52.1347 111.654 51.7226C111.345 51.6196 110.933 51.6196 110.418 51.6196H108.872L108.769 57.2858Z" fill="black"/>
<path d="M114.539 58.11L117.423 50.5894H118.453L121.544 58.11H120.411L119.484 55.8435H116.393L115.569 58.11H114.539ZM116.702 55.0193H119.278L118.453 52.9589C118.247 52.3407 118.041 51.8256 117.938 51.4135C117.835 51.9286 117.732 52.4437 117.526 52.8558L116.702 55.0193Z" fill="black"/>
<path d="M123.502 58.11V51.5165H121.029V50.5894H127.004V51.5165H124.532V58.11H123.502Z" fill="black"/>
<path d="M128.138 58.11V50.5894H129.168V58.11H128.138Z" fill="black"/>
<path d="M130.61 54.5045C130.61 53.3712 130.919 52.341 131.537 51.6199C132.155 50.8987 133.083 50.4866 134.216 50.4866C134.937 50.4866 135.555 50.6926 136.07 51.0017C136.585 51.3108 137.1 51.8259 137.41 52.444C137.719 53.0622 137.822 53.6803 137.822 54.5045C137.822 55.2256 137.719 55.8437 137.41 56.4619C137.1 57.08 136.688 57.5951 136.07 57.9042C135.555 58.2133 134.937 58.4193 134.216 58.4193C133.495 58.4193 132.877 58.2133 132.361 57.9042C131.743 57.5951 131.331 57.08 131.022 56.4619C130.713 55.7407 130.61 55.1226 130.61 54.5045ZM131.64 54.5045C131.64 55.3287 131.846 56.0498 132.258 56.5649C132.774 57.1831 133.392 57.3891 134.216 57.3891C135.04 57.3891 135.761 57.08 136.173 56.4619C136.585 55.9468 136.791 55.2256 136.791 54.2984C136.791 53.0622 136.379 52.135 135.555 51.6199C135.143 51.4138 134.731 51.2077 134.216 51.2077C133.289 51.2077 132.671 51.5168 132.258 52.135C131.846 52.8561 131.64 53.5773 131.64 54.5045Z" fill="black"/>
<path d="M139.058 58.11V50.5894H140.088L144.003 56.4616V50.5894H144.93V58.11H143.9L139.985 52.2377V58.11H139.058Z" fill="black"/>
<path d="M204.581 31.9424H73.5359V32.5606H204.581V31.9424Z" fill="black"/>
<path d="M29.6476 18.24C29.6476 18.137 29.6476 18.137 29.6476 18.0339H28.5144C28.5144 18.0339 28.5144 18.034 28.5144 18.137C28.5144 21.0216 28.5144 23.8032 28.5144 26.6879C28.5144 27.203 28.4114 27.306 27.8962 27.306C24.4965 27.306 21.0968 27.306 17.697 27.306C17.388 27.306 17.1819 27.306 16.8728 27.306V30.3967C17.0788 30.3967 17.3879 30.3967 17.594 30.3967C20.5816 30.3967 23.6723 30.3967 26.66 30.3967C27.2781 30.3967 27.3811 30.6027 27.3811 31.1178C27.3811 33.6934 27.3811 36.269 27.3811 38.8445C27.3811 39.3596 27.2781 39.5657 26.66 39.5657C23.6723 39.5657 20.5816 39.5657 17.594 39.5657C17.3879 39.5657 17.1819 39.5657 16.8728 39.5657C16.8728 40.6989 16.8728 41.8322 16.8728 42.9654C16.8728 43.0684 17.1819 43.2745 17.3879 43.2745C18.4181 43.2745 19.4484 43.2745 20.4786 43.2745C22.9511 43.2745 25.5268 43.2745 27.9993 43.2745C28.5144 43.2745 28.7204 43.4805 28.7204 43.9957C28.7204 46.6742 28.7204 49.2498 28.7204 51.9284C28.7204 52.0314 28.7204 52.2374 28.7204 52.3405H29.6476C29.6476 52.2374 29.6476 52.0314 29.6476 51.9284C29.6476 40.6989 29.6476 29.4695 29.6476 18.24Z" fill="#C1272F"/>
<path d="M67.3543 40.2874C64.3666 40.2874 61.379 40.2874 58.3913 40.2874C58.1853 40.2874 57.8762 40.2874 57.6702 40.2874V52.238H67.9724V39.9783C67.8694 40.2873 67.6633 40.2874 67.3543 40.2874Z" fill="#C1272F"/>
<path d="M44.1743 52.2375C44.1743 40.802 44.1743 29.4694 44.1743 18.0339H43.1441C43.1441 22.773 43.1441 27.409 43.1441 32.1481C43.1441 38.6385 43.1441 45.0259 43.1441 51.5163C43.1441 51.7223 43.1441 52.0314 43.1441 52.2375H44.1743Z" fill="#C1272F"/>
<path d="M57.8762 27.3064C57.7732 27.3064 57.7732 27.3064 57.6702 27.4094V31.2212C57.8762 31.2212 58.1853 31.2212 58.3913 31.2212C61.379 31.2212 64.2636 31.2212 67.2513 31.2212C67.3543 31.2212 67.4573 31.2212 67.5603 31.2212L66.8391 27.2034C63.8515 27.3064 60.8639 27.3064 57.8762 27.3064Z" fill="#C1272F"/>
<path d="M67.8696 33.0759V40.0815V52.2381H57.6704H44.1744H43.1442H29.6483H28.721H8.73468L11.8254 68.0006L72.1966 57.5953L67.8696 33.0759Z" fill="#C1272F"/>
<path d="M28.5151 18.0343H29.6483H43.1443H44.1745H65.2941L62.1005 0.108398L0.49292 10.3076L3.6866 26.3792V18.0343H28.5151Z" fill="#C1272F"/>
</svg>
