<svg width="218" height="49" viewBox="0 0 218 49" fill="none" xmlns="http://www.w3.org/2000/svg">
<path d="M198.214 42.5973C198.214 42.5973 198.934 42.3352 200.048 41.3524C201.162 40.3697 201.293 39.1248 202.276 37.88C203.389 36.5041 205.683 34.342 205.683 34.342C205.683 34.342 204.962 37.2904 204.307 38.6662C203.324 40.6973 202.276 41.2869 202.276 41.2869C202.276 41.2869 202.8 41.68 203.521 41.3524C204.241 41.0248 205.027 40.6318 206.141 40.7628C207.255 40.8938 208.631 40.8938 209.941 40.1076C211.317 39.3214 212.562 38.5352 212.562 38.5352C212.562 38.5352 211.71 41.1559 208.303 42.6628C206.076 43.58 203.52 43.58 202.669 43.1214C201.883 42.6628 200.9 42.4662 200.179 42.6628C199.458 42.8593 198.214 42.5973 198.214 42.5973Z" fill="#3EB5F1"/>
<path d="M209.286 28.5767C209.286 28.5767 209.286 31.1319 209.483 31.9836C209.614 32.9008 209.483 33.9491 209.09 34.8008C208.697 35.6526 208.107 36.8974 208.565 37.0939C209.024 37.356 209.155 36.3732 210.138 35.6525C211.121 34.9319 212.89 34.0801 213.807 33.4905C215.379 32.5732 216.559 30.8043 216.559 30.8043C216.559 30.8043 215.903 34.8008 212.562 37.0939C210.334 38.6008 206.01 38.994 206.01 38.994C206.01 38.994 206.469 38.6008 206.731 37.5526C206.993 36.5043 207.059 34.2767 207.517 32.8353C207.845 31.4594 209.286 28.5767 209.286 28.5767Z" fill="#3EB5F1"/>
<path d="M211.055 22.811C211.055 22.811 212.3 25.9559 212.497 26.8731C212.628 27.7904 212.431 30.4111 212.431 30.4111C212.431 30.4111 213.479 29.4938 214.462 27.8559C215.248 26.6111 216.428 26.1524 217.083 25.1696C217.738 24.1869 218 23.7283 218 23.7283C218 23.7283 217.345 26.5455 216.624 28.1835C215.445 30.9352 210.793 33.818 210.793 33.818C210.793 33.818 211.055 33.0318 211.186 31.4594C211.317 29.8869 210.924 28.0524 210.793 26.8731C210.597 25.6938 211.055 22.811 211.055 22.811Z" fill="#3EB5F1"/>
<path d="M210.99 16.3252C210.99 16.3252 211.383 16.7838 212.103 17.9631C212.889 19.1424 213.872 20.4528 213.938 21.1735C214.003 21.8942 214.331 22.8114 214.593 22.7459C214.855 22.6804 214.855 21.8942 215.183 20.6494C215.576 19.4045 216.624 18.1597 216.82 17.2424C216.952 16.5217 217.279 15.408 217.279 15.408C217.279 15.408 217.869 18.6183 217.148 21.1735C216.427 23.7942 214.921 25.039 214.658 25.3666C214.396 25.6942 213.938 26.1528 213.938 26.1528C213.938 26.1528 214.2 26.4149 213.479 24.777C212.758 23.139 212.234 22.1563 211.579 20.9769C211.12 19.9942 210.99 16.3252 210.99 16.3252Z" fill="#3EB5F1"/>
<path d="M209.352 10.9521C209.352 10.9521 211.121 12.0003 211.907 12.8521C212.824 13.8348 213.807 15.6693 214.134 15.6038C214.462 15.5383 214.134 13.9659 214.2 13.3762C214.265 12.7865 214.528 10.0348 214.397 9.31415C214.265 8.59345 214.069 7.54517 214.069 7.54517C214.069 7.54517 216.1 10.4935 216.034 12.59C215.969 14.6866 216.1 15.1452 215.117 16.7831C214.593 17.6348 214.331 18.8142 214.331 18.8142C214.331 18.8142 214.069 18.2245 213.348 17.3728C212.693 16.5211 211.186 15.0797 210.662 13.7693C210.138 12.459 209.352 10.9521 209.352 10.9521Z" fill="#3EB5F1"/>
<path d="M206.731 5.77647C206.731 5.77647 207.255 6.23508 208.041 6.82474C208.827 7.4144 209.876 7.80753 210.465 8.33167C211.055 8.92133 211.71 9.57649 212.038 9.37994C212.3 9.2489 211.972 8.72475 211.514 7.47991C211.055 6.23508 211.055 5.05577 210.727 4.53163C210.4 4.00748 210.007 2.95923 210.007 2.95923C210.007 2.95923 212.234 4.66268 212.627 6.10406C213.021 7.54545 212.955 12.0006 212.955 12.0006C212.955 12.0006 212.562 11.411 211.776 10.8868C210.989 10.2972 209.089 8.92132 208.434 8.39718C207.189 7.47993 206.731 5.77647 206.731 5.77647Z" fill="#3EB5F1"/>
<path d="M204.896 1.05933C204.896 1.05933 206.665 1.51796 207.845 2.50072C208.959 3.48348 209.876 6.16968 209.876 6.16968C209.876 6.16968 207.976 5.25244 207.255 4.53175C206.469 3.74554 204.896 1.05933 204.896 1.05933Z" fill="#3EB5F1"/>
<path d="M170.5 44.0389C170.5 44.0389 172.531 45.0872 174.103 44.9562C175.676 44.8251 177.182 44.301 179.738 43.6458C182.358 42.9906 184.324 42.7941 185.503 43.0562C186.682 43.2527 188.714 43.5148 188.714 43.5148C188.714 43.5148 191.4 43.1217 193.431 42.9906C194.479 42.9251 195.855 43.2527 197.427 43.7113C198.934 44.17 201.686 45.0872 203.193 45.0872C205.42 45.0872 207.124 44.2355 207.124 44.2355C207.124 44.2355 206.927 45.8734 201.489 46.3975C198.279 46.7251 196.969 46.4631 195.527 45.5458C194.086 44.6286 192.579 43.9079 191.858 43.8423C191.138 43.7768 190.089 43.9079 190.089 43.9079C190.089 43.9079 192.055 44.6286 192.972 45.3493C193.955 46.1355 196.445 48.1665 196.445 48.1665L195.855 48.8872C195.855 48.8872 194.872 47.5114 193.3 46.332C191.727 45.2182 189.5 44.0389 188.648 44.0389C187.796 44.0389 185.11 45.2838 183.407 46.8562C181.769 48.4286 181.572 48.8217 181.572 48.8217L180.917 48.1665C180.917 48.1665 182.162 46.9217 183.865 45.8079C185.569 44.6941 187.338 43.8423 187.338 43.8423C187.338 43.8423 187.272 43.6458 186.224 43.7768C185.176 43.8424 184.389 43.9734 182.62 45.0872C180.851 46.201 180.196 46.4631 178.689 46.5941C177.182 46.7906 174.234 46.4631 172.465 45.7424C170.893 44.9562 170.5 44.0389 170.5 44.0389Z" fill="#3EB5F1"/>
<path d="M165.062 38.273C165.062 38.273 166.7 39.5834 167.486 39.9765C169.189 40.9592 170.696 40.5006 171.744 40.6316C172.858 40.7627 173.776 41.0247 174.103 41.2213C174.431 41.3523 175.413 41.4834 175.479 41.2868C175.61 41.0903 174.627 40.6971 173.841 39.3868C172.793 37.4868 172.138 34.4075 172.138 34.4075C172.138 34.4075 173.775 35.5213 175.217 37.4868C176.658 39.4523 176.462 40.3695 177.51 41.2213C178.558 42.1385 179.607 42.5972 179.607 42.5972C179.607 42.5972 178.296 42.4661 177.313 42.5316C176.331 42.5971 174.693 43.2523 173.251 43.2523C171.81 43.2523 169.058 43.1213 166.831 40.5661C165.258 38.8626 165.062 38.273 165.062 38.273Z" fill="#3EB5F1"/>
<path d="M161 31.0007C161 31.0007 161.983 32.3111 163.358 33.4248C164.734 34.5386 166.896 35.2593 167.617 36.0456C168.338 36.8973 168.665 37.5525 169.058 37.3559C169.452 37.1593 168.796 36.4387 168.534 35.3904C168.272 34.2766 168.01 31.3938 168.272 30.28C168.403 29.6904 168.338 28.8386 168.338 28.8386C168.338 28.8386 168.993 29.9524 169.779 31.6559C170.5 33.2283 170.434 35.98 170.762 37.1594C171.089 38.4042 171.745 39.2559 171.745 39.2559C171.745 39.2559 169.583 39.1249 168.469 38.7318C167.355 38.3386 164.341 37.2248 163.227 35.3248C162.048 33.4248 161 31.0007 161 31.0007Z" fill="#3EB5F1"/>
<path d="M159.624 23.7285C159.624 23.7285 160.083 24.8423 160.738 25.4975C161.458 26.1526 161.852 26.4802 162.703 27.463C163.293 28.1182 164.669 30.7389 165.062 30.6734C165.39 30.6079 164.865 29.2975 164.996 27.9216C165.258 25.694 166.634 23.0078 166.634 23.0078C166.634 23.0078 166.962 25.7596 166.896 27.3975C166.831 29.0354 166.241 30.8699 166.438 31.8527C166.634 32.7699 166.765 33.9492 166.765 33.9492C166.765 33.9492 164.603 32.5079 163.096 31.132C161.59 29.7561 160.214 26.7423 159.952 25.8251C159.755 24.9733 159.624 23.7285 159.624 23.7285Z" fill="#3EB5F1"/>
<path d="M160.213 15.5388C160.213 15.5388 159.951 19.6009 160.475 21.4354C161.262 24.4492 163.555 26.3492 163.555 26.3492C163.555 26.3492 163.751 25.3009 164.275 24.2526C164.8 23.2044 165.586 22.1561 165.913 21.3044C166.503 19.6009 166.7 16.6526 166.7 16.6526C166.7 16.6526 166.175 17.5043 165.651 18.1595C165.127 18.8147 164.537 19.6664 164.079 20.7802C163.62 21.894 163.555 22.9423 163.031 23.0078C162.31 23.0733 162.9 22.025 162.31 20.5836C161.72 19.1423 160.803 17.7009 160.737 16.9802C160.541 16.2595 160.213 15.5388 160.213 15.5388Z" fill="#3EB5F1"/>
<path d="M163.424 7.67627C163.424 7.67627 161.786 9.90384 161.589 11.8694C161.327 13.9004 161.524 15.5384 162.31 16.8487C162.834 17.766 163.031 19.0763 163.031 19.0763C163.031 19.0763 163.293 18.3556 163.948 17.6349C164.603 16.9142 165.783 15.866 166.634 14.4246C167.486 13.0487 168.207 11.1487 168.207 11.1487C168.207 11.1487 166.896 11.8694 166.176 12.5901C164.341 14.2935 163.424 15.866 163.424 15.866C163.424 15.866 162.9 15.4073 163.096 14.7522C163.293 14.097 163.358 13.0487 163.293 12.2625C163.227 11.4763 162.965 11.0831 163.162 10.1004C163.162 9.24866 163.424 7.67627 163.424 7.67627Z" fill="#3EB5F1"/>
<path d="M167.814 3.15576C167.814 3.15576 165.651 4.46611 165.062 6.10405C164.603 7.34888 164.8 8.65925 164.603 9.9696C164.407 11.28 164.669 12.1972 164.669 12.1972C164.669 12.1972 164.865 11.8696 165.586 11.0834C166.372 10.2316 167.551 9.77304 168.403 9.18338C170.238 7.93855 171.024 5.90751 171.024 5.90751C171.024 5.90751 169.976 6.89024 169.451 7.15231C168.927 7.41438 167.945 7.93853 167.224 8.46267C166.7 8.85577 166.241 9.9696 166.241 9.9696C166.241 9.9696 165.586 9.31443 165.782 8.65925C166.045 7.93856 166.372 7.41442 166.503 6.69372C166.634 5.97303 166.831 4.99025 167.158 4.46611C167.42 3.87645 167.814 3.15576 167.814 3.15576Z" fill="#3EB5F1"/>
<path d="M169.386 3.02484C170.238 2.17311 172.727 1.25586 172.727 1.25586C172.727 1.25586 171.679 3.02483 170.5 4.20415C169.19 5.58002 167.486 6.36626 167.486 6.36626C167.486 6.36626 167.879 4.46623 169.386 3.02484Z" fill="#3EB5F1"/>
<path d="M180.852 5.90747C183.145 5.90747 187.665 8.33163 187.665 11.6075C187.665 13.6385 186.093 15.0144 186.093 15.0144C186.093 15.0144 186.158 16.1282 186.027 16.5213C185.7 17.1765 185.438 16.9799 185.045 17.5696C184.652 18.1592 184.455 19.0765 182.817 19.0765C181.179 19.0765 181.179 18.5523 180.393 18.5523C179.607 18.5523 179.083 19.3386 179.083 19.3386V25.2351C179.083 25.2351 179.279 25.9558 180.72 26.8075C182.227 27.5937 183.341 28.1179 183.8 28.1179C184.258 28.1179 184.258 27.5938 184.848 27.5938C185.438 27.5938 187.665 27.5938 187.665 28.6421C187.665 29.6903 186.552 30.411 182.424 30.411C178.362 30.411 177.052 30.0834 176.593 30.0834C176.134 30.0834 176.069 30.2145 176.069 30.8041C176.069 31.4593 176.069 32.311 176.069 32.311C176.069 32.311 176.724 33.4248 177.576 33.8179C178.427 34.2765 178.886 34.4731 179.803 34.4731C180.72 34.4731 182.096 34.1455 183.21 33.6869C184.324 33.1627 185.438 32.9007 186.683 32.9007C187.993 32.9007 190.221 32.5731 190.221 31.2628C190.221 29.9524 189.696 29.4938 189.696 28.4455C189.696 27.3972 189.827 26.5455 189.369 26.0214C188.91 25.5627 186.683 23.9248 186.683 23.0731C186.683 22.1558 187.469 21.7627 187.6 21.3041C187.665 20.7799 187.6 20.5179 187.993 20.3868C188.32 20.3213 188.583 20.1248 188.583 20.1248L188.714 19.273C188.714 19.273 189.172 19.0765 189.369 18.8799C189.565 18.6834 189.762 18.5523 189.762 18.5523C189.762 18.5523 189.565 17.8972 189.958 17.5041C190.352 17.111 190.81 17.1765 191.203 17.1765C191.596 17.1765 192.71 17.0455 192.71 17.0455C192.71 17.0455 193.038 16.3903 193.496 16.0627C194.152 15.5385 195.986 15.2765 196.445 14.9489C196.903 14.5558 197.427 13.704 198.607 13.704C203.586 13.704 206.993 18.2248 206.993 20.6489C206.993 24.842 204.241 29.9524 200.441 29.9524C197.427 29.9524 197.624 30.8696 197.624 31.8524C197.624 34.1455 199.852 34.6041 199.852 34.6041C199.852 34.6041 195.134 38.1421 189.631 38.1421C184.455 38.1421 179.279 36.2421 175.545 32.1145C172.989 29.2972 171.024 25.5627 171.024 20.3868C171.024 18.3558 171.024 18.0282 171.024 18.0282C171.024 18.0282 172.4 16.9799 173.186 16.5213C174.038 16.1282 175.872 15.0144 175.872 14.1627C175.872 13.3109 175.545 12.9178 175.545 11.0833C175.545 10.2316 175.741 8.65919 176.527 7.61091C177.576 6.62815 179.148 5.90747 180.852 5.90747Z" fill="#3EB5F1"/>
<path d="M188.976 0.535156C177.969 0.535156 169.058 9.44556 169.058 20.4525C169.058 31.4594 177.969 40.3698 188.976 40.3698C199.983 40.3698 208.893 31.4594 208.893 20.4525C208.893 9.44556 199.983 0.535156 188.976 0.535156ZM203.848 8.06967C204.897 9.3145 205.355 10.1662 205.355 10.1662C205.355 10.1662 204.634 10.8869 203.848 11.28C203.062 11.6732 201.555 12.1973 201.555 12.1973C201.555 12.1973 201.031 10.4938 200.572 9.57657C200.114 8.65932 199.655 7.61104 199.655 7.61104C199.655 7.61104 200.114 7.28344 200.769 6.82482C201.424 6.3662 201.883 5.9731 201.883 5.9731C201.883 5.9731 202.997 7.02139 203.848 8.06967ZM197.297 2.95931C197.297 2.95931 198.672 3.54895 199.524 4.20412C200.441 4.8593 201.49 5.71106 201.49 5.71106C201.49 5.71106 201.359 5.97313 200.834 6.36623C200.31 6.75934 199.59 7.08691 199.59 7.08691C199.59 7.08691 198.934 6.16966 198.345 5.44897C197.755 4.72828 196.707 3.54895 196.707 3.54895C196.707 3.54895 196.969 3.28689 197.1 3.15586C197.231 2.9593 197.297 2.95931 197.297 2.95931ZM194.676 7.08691C194.479 6.16966 193.955 5.31793 193.955 5.31793C193.955 5.31793 194.807 4.92481 195.331 4.53171C195.855 4.20412 196.314 3.81103 196.314 3.81103C196.314 3.81103 197.231 4.72827 197.952 5.64551C198.607 6.49724 199.131 7.34899 199.131 7.34899C199.131 7.34899 198.279 7.74209 197.231 8.20071C196.248 8.65934 194.938 8.85589 194.938 8.85589C194.938 8.85589 194.872 8.00415 194.676 7.08691ZM195.2 13.9007C195.2 13.9007 194.741 14.0318 193.169 14.0973C191.596 14.1628 190.221 14.0973 190.221 14.0973V9.70761C190.221 9.70761 191.4 9.77311 192.317 9.77311C193.169 9.77311 194.676 9.51106 194.676 9.51106C194.676 9.51106 194.741 10.2317 194.938 11.3455C195.134 12.3938 195.2 13.9007 195.2 13.9007ZM195.659 2.2386C196.183 2.36963 196.838 2.76277 196.838 2.76277L196.248 3.22136C196.248 3.22136 195.855 2.82827 195.462 2.50068C195.069 2.10758 194.217 1.84551 194.217 1.84551C194.217 1.84551 195.134 2.10756 195.659 2.2386ZM194.086 2.10759C195.069 2.63173 195.855 3.54895 195.855 3.54895C195.855 3.54895 195.462 3.81102 194.938 4.20412C194.414 4.59723 193.693 4.72829 193.693 4.72829C193.693 4.72829 193.234 3.61447 192.907 3.02481C192.579 2.43516 191.596 1.32137 191.596 1.32137C191.596 1.32137 193.103 1.58345 194.086 2.10759ZM190.155 1.19033C190.155 1.19033 191.269 0.928277 192.252 2.76277C192.776 3.74553 193.234 4.8593 193.234 4.8593C193.234 4.8593 192.448 5.12137 191.662 5.18688C190.876 5.2524 190.155 5.12138 190.155 5.12138V1.19033ZM190.155 5.71106C190.155 5.71106 190.876 5.77657 191.793 5.71106C192.645 5.64554 193.496 5.44897 193.496 5.44897C193.496 5.44897 193.824 5.77657 194.086 7.02141C194.348 8.1352 194.479 8.98693 194.479 8.98693C194.479 8.98693 193.562 9.249 192.252 9.31452C190.941 9.38004 190.221 9.24898 190.221 9.24898V5.71106H190.155ZM189.565 1.19033L189.631 5.18688C189.631 5.18688 188.779 5.25241 187.796 4.99034C186.879 4.72827 186.421 4.46621 186.421 4.46621C186.421 4.46621 186.945 3.48343 187.6 2.56618C189.041 0.600658 189.565 1.19033 189.565 1.19033ZM188.321 1.05929C188.321 1.05929 187.403 1.91102 187.01 2.69723C186.617 3.48344 186.027 4.26966 186.027 4.26966C186.027 4.26966 185.307 3.94208 184.848 3.61449C184.39 3.2869 184.128 3.02481 184.128 3.02481C184.128 3.02481 184.914 2.10756 186.355 1.58342C187.665 1.1248 188.321 1.05929 188.321 1.05929ZM184.586 1.58342C185.307 1.38687 185.896 1.38688 185.896 1.38688C185.896 1.38688 185.045 1.77999 184.586 2.17309C184.127 2.50068 183.734 2.76277 183.734 2.76277C183.734 2.76277 183.538 2.63173 183.407 2.43518C183.276 2.23863 183.276 2.04205 183.276 2.04205C183.276 2.04205 183.865 1.71446 184.586 1.58342ZM189.041 39.7802C179.279 39.7802 169.648 31.9836 169.648 20.518C169.648 6.10415 182.752 2.17309 182.752 2.17309L183.538 2.89377C183.538 2.89377 182.817 3.35242 182.293 3.94208C181.703 4.53173 181.376 5.05588 181.376 5.05588L181.703 5.38347C181.703 5.38347 182.096 4.79379 182.555 4.33516C183.014 3.87654 183.669 3.3524 183.669 3.3524C183.669 3.3524 184.324 4.07311 184.783 4.26966C185.241 4.53173 185.831 4.7938 185.831 4.7938C185.831 4.7938 185.765 5.12137 185.569 5.51447C185.372 5.90758 185.241 6.43173 185.241 6.43173L185.634 6.69382C185.634 6.69382 185.896 5.9076 186.093 5.58001C186.224 5.25243 186.355 4.99034 186.355 4.99034C186.355 4.99034 187.338 5.38346 188.19 5.58001C189.041 5.77657 189.631 5.71106 189.631 5.71106V9.11794H188.386V9.70761H189.696V14.0317H188.583V14.4904H189.631V16.0628H190.155V14.5559C190.155 14.5559 190.81 14.5559 192.645 14.4904C194.414 14.4249 195.593 14.2283 195.593 14.2283C195.593 14.2283 195.528 12.5904 195.396 11.411C195.265 10.2317 195.003 9.31452 195.003 9.31452C195.003 9.31452 196.052 9.18347 197.165 8.72485C198.279 8.26622 199.262 7.80759 199.262 7.80759C199.262 7.80759 199.852 8.65932 200.31 9.90415C200.769 11.149 201.228 12.3938 201.228 12.3938L200.441 12.7214L200.572 13.1145L201.49 12.8524L201.752 13.3766L202.079 13.2456L201.817 12.7214C201.817 12.7214 202.865 12.3938 203.914 11.8697C204.962 11.28 205.748 10.7559 205.748 10.7559C205.748 10.7559 208.369 14.7525 208.369 20.4525C208.369 29.1663 201.555 39.7802 189.041 39.7802Z" fill="#3EB5F1"/>
<path d="M19.5473 46.004V41.5488L19.4163 41.4178C17.3198 45.0213 14.7646 46.8557 9.98178 46.8557C5.59211 46.8557 0.285156 44.6937 0.285156 37.3557V15.3418H5.26455V35.6522C5.26455 40.6971 7.75417 42.4006 11.03 42.4006C17.3197 42.4006 19.2197 36.7005 19.2197 32.2453V15.4073H24.1991V46.004H19.5473" fill="#3EB5F1"/>
<path d="M55.9751 46.0038H50.9958V27.2003C50.9958 21.8934 49.4889 19.2071 44.6406 19.2071C41.8234 19.2071 36.7785 21.1072 36.7785 29.3624V46.0038H31.7992V15.4071H36.5164V19.7313H36.6474C37.7612 18.0933 40.513 14.5554 45.6234 14.5554C50.2096 14.5554 56.0407 16.4554 56.0407 25.2348V46.0038" fill="#3EB5F1"/>
<path d="M63.5094 9.8384V4.00732H68.4888V9.8384H63.5094ZM68.4888 46.0041H63.5094V15.4074H68.4888V46.0041Z" fill="#3EB5F1"/>
<path d="M94.5651 25.6938C93.9099 21.6317 91.7479 19.142 87.4892 19.142C81.2651 19.142 79.2995 25.2351 79.2995 30.6731C79.2995 35.9145 80.5443 42.4007 87.4236 42.4007C90.765 42.4007 93.7133 39.8455 94.5651 35.1283H99.4134C98.8892 39.9766 96.0065 46.8559 87.2926 46.8559C78.9064 46.8559 73.9926 40.3697 73.9926 31.5248C73.9926 22.0247 78.4478 14.4902 88.2754 14.4902C96.072 14.4902 99.0203 20.3213 99.4134 25.6938H94.5651Z" fill="#3EB5F1"/>
<path d="M129.682 36.3731C129.486 37.8145 128.175 42.1386 124.375 44.7593C123 45.6766 121.1 46.8559 116.317 46.8559C107.931 46.8559 103.017 40.3697 103.017 31.5248C103.017 22.0247 107.472 14.4902 117.3 14.4902C125.882 14.4902 130.075 21.5006 130.075 32.311H108.324C108.324 38.6662 111.206 42.4007 116.972 42.4007C121.689 42.4007 124.506 38.6662 124.638 36.3731H129.682ZM124.9 28.2489C124.638 23.5317 122.672 19.142 116.579 19.142C111.993 19.142 108.324 23.5317 108.324 28.2489H124.9Z" fill="#3EB5F1"/>
<path d="M142.262 19.6658V46.0039H137.282V19.6658H133.22V15.4072H137.282V10.1658C137.282 5.51403 140.1 3.41748 145.013 3.41748C145.734 3.41748 146.52 3.48297 147.306 3.54848V8.20025C146.651 8.13473 145.865 8.06921 145.275 8.06921C143.113 8.06921 142.327 9.18302 142.327 11.6072V15.4072H147.306V19.6658H142.262Z" fill="#3EB5F1"/>
</svg>
