<svg width="216" height="87" viewBox="0 0 216 87" fill="none" xmlns="http://www.w3.org/2000/svg">
<path d="M18.388 0.612793C18.5992 0.824029 18.8104 0.71845 19.0217 0.71845C20.606 1.14092 22.0846 1.98588 23.3521 3.04206C25.57 5.0488 27.2599 7.478 28.5273 10.2241C30.1116 13.3926 31.1678 16.6667 32.0127 20.1521C32.4352 21.7364 32.752 23.3207 32.9633 24.9049C33.1745 25.9611 33.2801 27.0173 33.3858 28.1791C33.597 29.2353 33.597 30.3971 33.7026 31.4533C33.8082 32.4038 33.8082 33.3544 33.8082 34.305C33.8082 35.678 33.8082 36.9454 33.8082 38.3184C31.9071 38.424 30.1116 38.1072 28.2105 38.2128C28.1048 38.0016 28.1049 37.896 28.1049 37.6847C28.1049 35.8892 27.9993 34.1994 27.788 32.4038C27.3656 28.7072 26.7318 25.2218 25.3588 21.7364C24.6194 19.8353 23.7745 18.0398 22.5071 16.4555C21.6622 15.3993 20.8172 14.5544 19.6554 13.9207C17.6487 12.8645 15.6419 13.0758 13.8464 14.4488C12.1566 15.7162 10.9947 17.3005 10.0442 19.2016C8.77674 21.7364 7.93183 24.3769 7.29812 27.1229C6.98127 28.496 6.77002 29.869 6.55878 31.242C6.45316 32.5094 6.24194 33.8825 6.24194 35.1499C6.24194 36.1004 6.13635 37.1566 6.13635 38.1072C5.71388 38.2128 1.38349 38.424 0.538545 38.3184C0.432927 38.2128 0.432953 38.0016 0.432953 37.7903C0.432953 36.5229 0.432953 35.2555 0.432953 34.0937C0.538571 32.6151 0.644176 31.242 0.749794 29.7634C0.855412 28.8128 0.961017 27.7567 1.06663 26.8061C1.27787 25.5387 1.48915 24.1656 1.70038 22.8982C2.22847 20.1522 2.9678 17.5117 3.81274 14.8712C4.86892 11.9139 6.13633 8.95661 8.03746 6.42178C9.19925 4.73189 10.6779 3.25327 12.3678 2.09147C13.3183 1.45776 14.3745 0.92966 15.642 0.824042C15.7476 0.824042 15.7476 0.824068 15.7476 0.71845C16.9094 0.612832 17.6487 0.612793 18.388 0.612793Z" fill="#3E1B6F"/>
<path d="M215.894 59.2306C215.578 59.5475 215.472 59.97 215.155 60.1812C213.888 61.2374 211.353 61.0262 210.614 59.3363C210.508 59.0194 210.402 58.8082 210.402 58.4913C210.402 57.5408 210.402 56.5902 210.402 55.6396C210.402 55.4284 210.402 55.2171 210.402 55.0059C209.98 54.9003 209.452 55.0059 209.029 54.9003C208.924 54.4778 209.029 53.9497 208.924 53.4216C209.557 53.4216 210.085 53.4216 210.614 53.4216C211.142 53.4216 211.67 53.4216 212.198 53.4216C212.303 53.6329 212.303 53.8441 212.303 53.9497C212.303 55.3228 212.303 56.5902 212.303 57.9633C212.303 58.1745 212.303 58.3857 212.409 58.5969C212.62 59.3363 213.043 59.4419 213.782 59.125C214.205 58.3857 213.993 57.6464 214.099 56.8014C214.733 56.8014 215.366 56.8014 216 56.8014C215.894 57.6464 215.894 58.3857 215.894 59.2306Z" fill="#3E1B6F"/>
<path d="M23.5641 26.8062C23.4585 29.2354 22.4022 31.0308 20.2899 32.2983C19.1281 33.0376 17.755 33.3545 16.382 33.1433C14.5865 32.932 13.0022 32.1926 11.8405 30.714C10.6787 29.341 10.2562 27.6511 10.4674 25.8556C10.6787 24.4826 11.2067 23.2151 12.1573 22.2646C13.1079 21.314 14.2697 20.5747 15.6427 20.3634C17.0158 20.0466 18.3888 20.1522 19.7618 20.7859C21.5573 21.6309 22.8247 23.1095 23.3528 25.0107C23.5641 25.6444 23.6697 26.2781 23.5641 26.8062Z" fill="#B5B0AD"/>
<path d="M42.364 75.8127C39.3011 75.8127 36.8718 73.3835 36.8718 70.3206C36.8718 67.1521 39.4066 64.7229 42.4696 64.8285C45.4269 64.8285 47.8561 67.1521 47.8561 70.3206C47.8561 73.7004 45.11 75.9184 42.364 75.8127Z" fill="#3E1B6F"/>
<path d="M59.6852 21.3138C59.7909 24.2711 57.1504 26.9116 54.0875 26.806C51.0246 26.7003 48.5954 24.2711 48.701 21.2081C48.701 18.1452 51.2359 15.7161 54.1932 15.7161C57.3617 15.7161 59.7909 18.3565 59.6852 21.3138Z" fill="#3E1B6F"/>
<path d="M42.8921 15.8218C45.955 15.8218 48.4898 18.3566 48.3842 21.4195C48.2786 24.5881 46.0606 26.806 42.8921 26.9117C39.6179 26.9117 37.3999 24.5881 37.3999 21.4195C37.2943 18.3566 39.7235 15.8218 42.8921 15.8218Z" fill="#B5B0AD"/>
<path d="M59.2629 58.5969C59.2629 61.6598 56.8336 64.1946 53.7707 64.1946C50.919 64.1946 48.2786 61.871 48.2786 58.5969C48.2786 55.534 50.8134 53.1047 53.7707 53.1047C56.8336 53.1047 59.2629 55.6396 59.2629 58.5969Z" fill="#B5B0AD"/>
<path d="M47.6445 58.8083C47.5389 61.9768 45.2153 64.3005 42.0468 64.3005C38.9839 64.3005 36.5546 61.8712 36.5546 58.8083C36.5546 55.5342 39.1951 53.3162 42.0468 53.3162C45.0041 53.3162 47.5389 55.6398 47.6445 58.8083Z" fill="#3E1B6F"/>
<path d="M59.6851 32.7205C59.7907 35.6778 57.2559 38.2127 54.0874 38.2127C51.0244 38.2127 48.7009 35.6779 48.7009 32.6149C48.7009 29.552 51.3413 27.1228 54.193 27.1228C57.4672 27.2284 59.7907 29.8689 59.6851 32.7205Z" fill="#3E1B6F"/>
<path d="M71.0923 58.914C71.3036 61.977 68.5575 64.5118 65.4945 64.4062C62.6428 64.3006 60.108 61.8713 60.2136 58.914C60.3193 55.6399 62.7485 53.4219 65.7058 53.4219C68.6631 53.3163 71.3036 55.8511 71.0923 58.914Z" fill="#B5B0AD"/>
<path d="M5.71462 52.2596C2.6517 52.3652 0.222473 49.7247 0.222473 46.7674C0.222473 43.9157 2.54608 41.2753 5.71462 41.1697C8.88316 41.1697 11.2068 43.8101 11.2068 46.6618C11.2068 49.936 8.46069 52.3652 5.71462 52.2596Z" fill="#3E1B6F"/>
<path d="M22.5081 46.7674C22.6137 49.936 19.762 52.3652 16.9103 52.2596C14.0586 52.1539 11.4182 49.6191 11.5238 46.5562C11.6294 43.7045 13.8474 41.1697 17.0159 41.1697C20.3957 41.2753 22.6137 44.127 22.5081 46.7674Z" fill="#3E1B6F"/>
<path d="M70.7751 70.4265C70.7751 73.595 68.1347 75.9186 65.283 75.9186C62.2201 75.9186 59.7909 73.4894 59.7909 70.4265C59.7909 67.3636 62.3257 64.8287 65.283 64.9343C68.346 64.9343 70.7751 67.4692 70.7751 70.4265Z" fill="#3E1B6F"/>
<path d="M65.3889 15.1883C62.2204 15.1883 60.0024 12.6534 59.8968 9.69613C59.8968 6.52759 62.2204 4.09839 65.3889 4.09839C68.5575 4.09839 70.8811 6.31631 70.8811 9.59047C70.9867 12.759 68.4519 15.2939 65.3889 15.1883Z" fill="#B5B0AD"/>
<path d="M23.1414 46.8735C23.0358 43.9162 25.5706 41.3813 28.6335 41.3813C31.9077 41.3813 34.1257 44.0218 34.1257 46.9791C34.1257 50.042 31.5908 52.4712 28.6335 52.4712C25.465 52.4712 23.0358 49.7252 23.1414 46.8735Z" fill="#3E1B6F"/>
<path d="M42.7862 15.1882C40.0401 15.3994 37.1884 12.759 37.3997 9.37919C37.5053 6.84436 39.8289 4.09826 43.2087 4.20388C45.8491 4.3095 48.5952 6.73871 48.384 10.0129C48.1727 12.6533 45.8491 15.3994 42.7862 15.1882Z" fill="#B5B0AD"/>
<path d="M70.8811 47.0844C70.9867 50.1473 68.135 52.5765 65.3889 52.5765C62.4316 52.5765 59.8968 49.9361 59.8968 46.9788C60.0024 43.9159 62.6428 41.5923 65.4945 41.5923C68.3462 41.5923 70.9867 44.2327 70.8811 47.0844Z" fill="#3E1B6F"/>
<path d="M11.7349 69.6865C11.6293 66.4123 14.4809 64.1943 17.1214 64.1943C20.1843 64.1943 22.7191 66.6236 22.7191 69.6865C22.7191 72.7494 20.29 75.2842 17.227 75.2842C14.0585 75.1786 11.6293 72.6438 11.7349 69.6865Z" fill="#3E1B6F"/>
<path d="M53.8762 41.4868C56.8335 41.3812 59.3684 44.0216 59.3684 47.0846C59.3684 49.725 57.256 52.4711 53.8762 52.5767C50.4965 52.5767 48.3842 49.6194 48.3842 46.979C48.3842 43.9161 51.0246 41.3812 53.8762 41.4868Z" fill="#3E1B6F"/>
<path d="M5.39761 63.6667C2.65155 63.878 -0.200177 61.2375 0.0110594 57.8578C0.222295 55.0061 2.75718 52.5769 5.60886 52.6825C8.46055 52.6825 11.101 55.2173 10.9954 58.3859C10.8897 61.3432 8.35492 63.7724 5.39761 63.6667Z" fill="#B5B0AD"/>
<path d="M16.9101 63.6666C13.9528 63.7722 11.418 61.0261 11.418 58.1745C11.418 55.0059 14.164 52.6824 16.9101 52.6824C19.8674 52.6824 22.5079 55.2172 22.4023 58.3857C22.2966 61.4486 19.5506 63.7722 16.9101 63.6666Z" fill="#3E1B6F"/>
<path d="M34.4428 70.0041C34.654 73.0671 31.8023 75.6019 28.9506 75.4963C25.7821 75.3907 23.5641 73.0671 23.5641 69.8985C23.5641 66.73 26.2046 64.3008 29.2675 64.4064C32.0135 64.512 34.5484 67.0468 34.4428 70.0041Z" fill="#B5B0AD"/>
<path d="M0.222272 69.6872C0.116654 66.6243 2.75709 64.0895 5.82001 64.1951C8.6717 64.3007 11.2066 66.6243 11.2066 69.7928C11.2066 72.9614 8.77734 75.285 5.71442 75.285C2.75712 75.1793 0.116654 72.6445 0.222272 69.6872Z" fill="#B5B0AD"/>
<path d="M28.6337 63.8779C25.6764 63.9835 23.1416 61.343 23.1416 58.3857C23.1416 55.3228 25.782 52.7879 28.7393 52.8936C31.6966 52.9992 34.1259 55.3228 34.1259 58.3857C34.2315 61.4486 31.5911 64.0891 28.6337 63.8779Z" fill="#B5B0AD"/>
<path d="M42.2584 41.4867C45.2157 41.4867 47.7506 44.0216 47.7506 46.9789C47.7506 49.9362 45.427 52.471 42.2584 52.471C38.9843 52.471 36.7664 49.725 36.7664 46.8733C36.7664 43.8104 39.5124 41.3811 42.2584 41.4867Z" fill="#3E1B6F"/>
<path d="M70.9864 33.0374C71.092 34.5161 70.4583 35.7835 69.5078 36.8397C68.4516 38.0015 67.0785 38.6352 65.4942 38.5296C62.3257 38.4239 60.1078 36.1004 60.0021 32.9318C60.0021 29.9745 62.6426 27.2284 65.9167 27.4397C68.4515 27.5453 71.1976 29.9745 70.9864 33.0374Z" fill="#B5B0AD"/>
<path d="M53.9823 15.1883C51.1306 15.2939 48.4902 12.759 48.5958 9.59047C48.5958 6.31631 51.3419 4.09839 54.1936 4.09839C57.0453 4.20401 59.5801 6.42193 59.5801 9.59047C59.5801 13.0759 56.7284 15.3995 53.9823 15.1883Z" fill="#3E1B6F"/>
<path d="M53.8762 75.8128C50.9189 75.9184 48.3842 73.2779 48.3842 70.3206C48.3842 67.1521 51.0246 64.8285 53.8762 64.7229C56.8335 64.7229 59.3684 67.1521 59.474 70.215C59.3684 73.3836 56.7279 75.8128 53.8762 75.8128Z" fill="#3E1B6F"/>
<path d="M42.8924 38.424C39.9351 38.6352 37.4002 35.7835 37.4002 32.9318C37.4002 29.8689 40.0407 27.4397 42.8924 27.4397C45.9553 27.4397 48.3845 29.9745 48.3845 32.9318C48.3845 35.8891 46.0609 38.5296 42.8924 38.424Z" fill="#B5B0AD"/>
<path d="M70.9866 21.4195C71.1978 24.2712 68.4518 27.0173 65.6001 26.9117C62.5372 26.9117 60.108 24.2712 60.108 21.4195C60.108 18.3566 62.6428 15.9274 65.6001 15.8218C68.2406 15.9274 71.1978 18.4622 70.9866 21.4195Z" fill="#B5B0AD"/>
<path d="M83.9772 13.4983C83.8716 12.5477 83.9772 6.52751 83.9772 5.8938C84.1885 5.8938 84.5054 5.8938 84.8222 5.8938C85.984 5.8938 87.0402 5.89384 88.202 5.99946C89.2581 6.10507 89.9975 6.84441 90.1031 7.79497C90.3144 8.85115 89.6806 9.80169 88.8357 10.0129C88.6245 10.1185 88.5188 10.1185 88.202 10.1185C89.4694 10.9635 89.8919 12.2309 90.7368 13.3927C90.7368 10.8579 90.7368 8.42863 90.7368 5.8938C91.5818 5.8938 92.3211 5.8938 93.0604 5.8938C93.4829 7.47807 93.9054 9.06235 94.4334 10.8579C94.8559 9.16797 95.2784 7.58369 95.7009 5.8938C96.4402 5.8938 97.1795 5.8938 98.0245 5.8938C98.0245 8.42863 98.0245 10.8579 98.0245 13.4983C97.7076 13.4983 97.4963 13.4983 97.1795 13.4983C96.9682 13.4983 96.757 13.4983 96.5458 13.3927C96.5458 11.8084 96.5458 10.1185 96.5458 8.53425H96.4402C96.0177 10.2241 95.5953 11.8084 95.1728 13.4983C94.6447 13.4983 94.2222 13.4983 93.5885 13.4983C93.166 11.8084 92.7436 10.1185 92.3211 8.42866C92.3211 8.42866 92.3211 8.42866 92.2155 8.42866C92.2155 10.1185 92.2155 11.8084 92.2155 13.4983C91.0537 13.4983 89.9975 13.4983 88.73 13.4983C88.6244 13.4983 88.5188 13.2871 88.4132 13.1815C87.8851 12.5478 87.4627 11.8084 87.0402 11.1747C86.6177 10.541 86.0897 10.4354 85.3503 10.541C85.3503 11.5972 85.3503 12.5478 85.3503 13.604C85.0335 13.4983 84.5053 13.4983 83.9772 13.4983ZM85.5615 9.16799C86.3008 9.16799 86.9346 9.16799 87.5683 9.16799C87.6739 9.16799 87.7795 9.06234 87.8851 9.06234C88.202 8.95672 88.4132 8.74554 88.4132 8.32306C88.4132 7.79497 88.0964 7.37248 87.5683 7.37248C86.9346 7.37248 86.1952 7.37248 85.5615 7.37248C85.5615 8.00618 85.5615 8.53429 85.5615 9.16799Z" fill="#3E1B6F"/>
<path d="M151.679 55.8509C151.679 55.6397 151.785 55.5341 151.679 55.3228C151.045 54.6891 150.412 54.7947 150.2 55.534C149.672 55.534 149.039 55.534 148.51 55.534C148.405 54.5834 148.933 54.0554 149.672 53.6329C150.517 53.2104 151.573 53.2104 152.418 53.6329C152.946 53.8441 153.369 54.2666 153.58 54.7947C153.897 55.2172 153.791 55.7453 153.58 56.2733C153.369 56.4846 153.158 56.6958 152.946 57.0127C153.052 57.1183 153.158 57.1183 153.263 57.2239C154.319 57.752 154.531 59.0194 153.791 59.97C153.369 60.4981 152.841 60.8149 152.207 61.0262C151.468 61.2374 150.728 61.2374 149.989 61.0262C148.827 60.7093 148.088 60.0756 147.771 58.9138C147.771 58.8082 147.771 58.7026 147.771 58.5969C148.405 58.5969 148.933 58.5969 149.672 58.5969C149.672 59.0194 149.884 59.3363 150.306 59.4419C150.94 59.5475 151.468 59.6531 151.996 59.3363C152.418 59.1251 152.418 58.7026 152.101 58.0689C151.679 57.8576 151.257 57.752 150.834 57.752C149.989 57.752 149.25 57.6464 148.405 57.752C148.088 57.752 147.771 57.752 147.56 57.752C147.454 57.9633 147.454 58.2801 147.454 58.4914C147.56 59.5475 146.821 60.4981 145.659 60.9206C144.075 61.4486 142.596 59.97 142.49 58.8082C142.49 58.3857 142.49 57.9633 142.701 57.4352C143.124 56.4846 143.758 56.0621 144.708 56.0621C144.919 56.0621 145.131 56.0621 145.448 56.0621C145.025 54.7947 143.758 54.5835 142.279 55.3228C142.173 55.4284 142.173 55.534 142.068 55.6397C141.962 55.7453 141.962 55.8509 141.857 55.9565C141.857 57.4352 141.857 59.0194 141.857 60.7093C141.223 60.7093 140.589 60.7093 140.061 60.7093C139.955 60.6037 139.955 60.4981 139.955 60.3925C139.955 59.0194 139.955 57.6464 139.955 56.1677C139.955 55.1116 140.378 54.3722 141.328 53.9497C143.018 52.9992 144.708 52.9992 146.398 54.0554C146.926 54.3722 147.349 54.9003 147.454 55.534C147.454 55.6396 147.56 55.7453 147.56 55.9565C147.877 56.0621 148.299 55.9565 148.616 55.9565C149.461 55.9565 150.2 55.9565 151.045 55.9565C151.257 56.0621 151.468 56.0621 151.679 55.8509ZM144.919 59.2306C145.553 58.9138 145.659 58.5969 145.448 57.6464C144.814 57.6464 144.603 57.752 144.497 58.0689C144.391 58.5969 144.497 59.0194 144.919 59.2306Z" fill="#3E1B6F"/>
<path d="M103.517 61.66C103.517 61.4488 103.517 61.2375 103.517 61.0263C103.305 61.0263 103.2 61.3431 102.989 61.3431C102.672 61.1319 102.249 60.8151 101.932 60.6038C101.193 60.9207 100.454 61.0262 99.6088 60.815C98.5526 60.4982 97.6021 59.5476 97.6021 58.2802C97.6021 56.6959 97.6021 55.1117 97.6021 53.5274C98.2358 53.5274 98.8695 53.5274 99.3976 53.5274C99.6088 53.7386 99.5032 53.8443 99.5032 54.0555C99.5032 55.3229 99.5032 56.5903 99.5032 57.9634C99.5032 58.1746 99.5032 58.3859 99.5032 58.4915C99.6088 59.0196 99.82 59.3364 100.348 59.442C100.876 59.442 101.087 59.1251 101.193 58.7027C101.299 58.4914 101.299 58.1746 101.299 57.9634C101.299 56.696 101.299 55.5342 101.299 54.2667C101.299 54.0555 101.299 53.8442 101.299 53.633C101.932 53.5274 102.566 53.633 103.2 53.5274C103.305 54.2667 103.305 58.3859 103.2 59.0196C103.2 59.1252 103.305 59.2307 103.517 59.2307C103.728 59.1251 103.517 58.9139 103.728 58.7027C104.362 58.7027 104.89 58.7027 105.523 58.7027C105.629 58.9139 105.523 59.1252 105.735 59.3364C106.368 59.442 106.896 59.0195 107.319 58.5971C106.791 58.5971 106.263 58.4915 105.735 58.2802C104.678 57.8577 104.256 56.9072 104.362 55.7454C104.573 54.1611 105.629 53.3162 107.213 53.3162C108.798 53.3162 109.959 54.2667 110.171 55.2173C110.487 56.4847 110.276 57.6465 109.326 58.5971C109.114 58.8083 108.903 59.1252 108.692 59.3364C109.326 59.2308 109.959 59.442 110.382 60.0757C110.699 60.4982 110.804 61.0263 110.699 61.66C110.065 61.66 109.431 61.66 108.798 61.66C108.692 61.4488 108.798 61.2375 108.692 61.0263C108.586 60.815 108.269 60.7094 107.953 60.7094C107.213 60.7094 106.368 60.7094 105.629 60.7094C105.523 61.0263 105.629 61.3432 105.523 61.66C104.784 61.7656 104.15 61.66 103.517 61.66ZM106.685 57.224C107.741 57.4353 108.164 57.0128 108.164 56.0622C108.164 55.2173 107.741 54.9004 106.685 54.9004C105.946 55.5341 105.946 56.5903 106.685 57.224Z" fill="#3E1B6F"/>
<path d="M129.604 55.851C129.393 56.1678 129.182 56.379 128.865 56.6959C129.076 56.9071 129.287 57.0127 129.499 57.224C130.238 57.8577 130.238 59.1251 129.499 59.8644C128.654 60.815 127.492 61.0262 126.224 60.9206C125.485 60.815 124.746 60.6037 124.218 59.97C124.006 59.7588 123.795 59.4419 123.69 59.1251C123.478 59.6532 123.267 60.0757 122.845 60.3925C121.577 61.4487 119.465 61.1318 118.514 59.8644C118.197 59.442 118.092 59.0195 118.092 58.4914C118.092 57.5409 118.092 56.6959 118.092 55.7453C118.092 55.5341 118.092 55.3229 117.986 55.1116C117.564 55.1116 117.141 55.1116 116.719 55.1116C116.613 54.5835 116.719 54.161 116.719 53.6329C117.247 53.5273 117.881 53.6329 118.409 53.6329C118.937 53.6329 119.465 53.6329 119.993 53.6329C120.099 53.8442 120.099 54.0554 120.099 54.161C120.099 55.4285 120.099 56.8015 120.099 58.0689C120.099 58.4914 120.204 58.9138 120.415 59.2307C120.838 59.5475 121.155 59.5475 121.577 59.2307C122 58.597 121.789 57.7521 121.894 56.9071C122.528 56.9071 123.162 56.9071 123.69 56.9071C123.901 56.5903 123.69 56.379 123.901 56.1678C124.218 56.1678 124.429 56.1678 124.851 56.1678C124.535 55.7453 124.323 55.3229 124.535 54.7948C124.746 54.2667 125.168 53.8442 125.696 53.6329C126.436 53.3161 127.175 53.3161 127.914 53.5274C128.548 53.7386 128.971 54.1611 129.393 54.5835C129.71 55.006 129.604 55.4285 129.604 55.851ZM123.795 58.3858C124.429 58.3858 124.957 58.3858 125.485 58.3858C125.591 58.597 125.485 58.8082 125.802 59.1251C126.33 59.4419 127.069 59.5476 127.809 59.1251C128.126 59.0195 128.231 58.7026 128.231 58.3858C128.126 58.1745 128.126 57.9633 128.02 57.7521C126.647 57.3296 125.168 57.5408 123.795 57.5408C123.69 57.8577 123.795 58.0689 123.795 58.3858ZM126.119 55.4285C126.33 56.0622 126.436 56.0622 127.386 55.9566C127.809 55.5341 127.809 55.3229 127.281 54.7948C126.964 54.7948 126.647 54.6891 126.33 54.9004C126.224 55.1116 126.119 55.3228 126.119 55.4285Z" fill="#3E1B6F"/>
<path d="M101.616 18.0397C101.616 18.5678 101.616 19.0959 101.616 19.624C102.883 19.624 104.045 19.624 105.312 19.624C105.312 20.1521 105.312 20.5746 105.312 20.9971C104.045 20.9971 102.883 20.9971 101.616 20.9971C101.616 21.6308 101.616 22.2645 101.616 22.8982C102.989 22.8982 104.362 22.8982 105.629 22.8982C105.735 23.215 105.629 23.5318 105.735 23.8487C106.58 22.5813 107.319 21.4195 108.058 20.2577C107.319 19.0959 106.58 17.9341 105.735 16.6667C106.368 16.5611 106.897 16.6667 107.53 16.5611C108.058 17.3004 108.481 18.1454 109.009 18.8847C109.537 18.1454 109.959 17.406 110.382 16.5611C111.016 16.4555 111.544 16.5611 112.177 16.5611C111.438 17.8285 110.593 18.9903 109.854 20.2577C110.699 21.5251 111.544 22.7925 112.389 24.06C111.755 24.06 111.121 24.06 110.488 24.06C109.959 23.215 109.431 22.4757 108.903 21.5252C108.375 22.3701 107.847 23.215 107.213 24.06C104.679 24.06 102.249 24.06 99.7145 24.06C99.7145 21.5251 99.7145 19.0959 99.7145 16.6667C99.7145 16.6667 99.7145 16.5611 99.8201 16.5611C99.8201 16.5611 99.8202 16.5611 99.9258 16.5611C101.721 16.5611 103.517 16.5611 105.312 16.5611C105.524 16.9836 105.312 17.4061 105.418 17.8285C104.256 18.0398 102.989 18.0397 101.616 18.0397Z" fill="#3E1B6F"/>
<path d="M184.843 55.006C184.42 55.006 183.998 55.006 183.576 55.006C183.576 55.4285 183.576 55.7454 183.576 56.1679C182.308 56.1679 181.041 56.1679 179.773 56.1679C179.562 57.0128 179.668 58.3859 179.879 59.0196C180.301 59.3364 180.724 59.3364 181.146 59.0196C181.569 58.4915 181.252 57.8578 181.463 57.224C182.097 57.224 182.731 57.224 183.47 57.224C183.47 58.2802 183.47 59.3364 182.625 60.0757C181.358 61.2375 178.823 60.9206 178.083 59.2307C177.978 59.0195 177.872 58.7027 177.872 58.4915C177.872 56.8016 177.872 55.2173 177.872 53.5274C177.872 53.5274 177.872 53.4218 177.978 53.4218C178.611 53.4218 179.14 53.4218 179.879 53.4218C179.879 53.8442 179.879 54.1611 179.879 54.5836C181.146 54.5836 182.414 54.5836 183.681 54.5836C183.681 54.1611 183.681 53.8442 183.681 53.4218C184.209 53.3161 186.216 53.2105 187.061 53.4218C187.061 54.3723 187.061 55.3229 187.061 56.2735C187.061 57.224 186.955 58.069 187.272 59.0196C187.378 59.1252 187.483 59.2307 187.589 59.2307C188.012 59.442 188.434 59.3364 188.54 58.9139C188.645 58.5971 188.751 58.3858 188.751 58.069C188.751 57.8577 188.751 57.6465 188.751 57.5409C188.751 57.3297 188.751 57.1184 188.751 56.9072C189.385 56.8016 190.018 56.9072 190.652 56.9072C190.652 57.6465 190.758 58.2802 190.652 59.0196C190.441 60.1814 189.49 60.9207 188.223 61.0263C187.167 61.1319 186.322 60.815 185.582 59.9701C185.16 59.442 185.054 58.9139 185.054 58.2802C184.843 57.1184 184.843 56.1678 184.843 55.006Z" fill="#3E1B6F"/>
<path d="M119.465 49.3028C119.043 49.3028 118.62 49.3028 118.198 49.3028C118.198 49.7253 118.198 50.0421 118.198 50.4646C117.564 50.4646 116.93 50.4646 116.297 50.4646C116.191 50.359 116.191 50.1478 116.191 50.0421C116.191 48.7747 116.191 47.5073 116.191 46.3455C116.191 46.0287 116.191 45.7118 116.085 45.2893C115.98 44.8669 115.769 44.6556 115.452 44.6556C115.029 44.6556 114.712 44.8668 114.607 45.1837C114.501 45.3949 114.501 45.7118 114.501 45.923C114.501 46.5567 114.501 47.0848 114.501 47.7185C113.868 47.7185 113.234 47.7185 112.6 47.7185C112.494 48.0354 112.494 48.3522 112.494 48.6691C112.178 50.0421 111.227 50.4646 110.276 50.5702C109.537 50.6758 108.798 50.5702 108.059 50.1477C107.319 49.6196 106.897 48.9859 106.897 48.141C106.897 47.1904 106.897 46.1342 106.897 45.1837C106.897 45.0781 106.897 44.9725 106.897 44.7612C106.474 44.7612 105.946 44.7612 105.524 44.7612C105.524 44.2332 105.524 43.7051 105.524 43.177C106.58 43.177 107.636 43.177 108.798 43.177C108.903 43.2826 108.903 43.4938 108.903 43.7051C108.903 44.9725 108.903 46.2399 108.903 47.5073C108.903 47.7185 108.903 47.9298 109.009 48.2466C109.22 48.9859 109.326 49.0916 110.171 49.0916C111.016 48.4578 110.593 47.5073 110.805 46.5567C111.438 46.5567 112.072 46.5567 112.706 46.5567C112.706 46.2398 112.706 45.923 112.706 45.6062C112.706 44.4444 113.551 43.5994 114.501 43.177C115.029 42.9657 115.663 42.9657 116.297 43.0713C117.353 43.2826 118.409 44.2331 118.409 45.6062C118.409 46.2399 118.409 46.8735 118.409 47.6129C118.832 47.6129 119.254 47.6129 119.677 47.6129C119.465 48.3522 119.465 48.7747 119.465 49.3028Z" fill="#3E1B6F"/>
<path d="M157.488 13.4986C156.854 13.6042 156.22 13.4986 155.587 13.4986C155.375 12.9705 155.164 12.3368 154.953 11.8087C154.002 11.8087 153.052 11.8087 152.101 11.8087C151.784 12.3368 151.679 12.9705 151.362 13.4986C150.306 13.4986 149.25 13.4986 148.193 13.4986C147.982 13.0761 148.088 6.95032 148.193 5.99976C148.722 5.99976 149.144 5.99976 149.778 5.99976C149.778 6.73908 149.778 7.58401 149.778 8.42896C149.778 9.2739 149.778 10.0132 149.778 10.8582C149.778 11.7031 149.778 12.4424 149.778 13.2874C149.778 13.2874 149.778 13.2874 149.883 13.2874C150.834 10.8581 151.784 8.42894 152.735 6.10535C153.263 6.10535 153.791 5.99973 154.425 6.10535C155.375 8.53456 156.432 11.0694 157.382 13.6043C157.488 13.393 157.488 13.1818 157.488 13.0762C157.488 10.9638 157.488 8.95705 157.488 6.84469C157.488 6.63345 157.382 6.42224 157.593 6.211C157.488 8.5346 157.488 11.0694 157.488 13.4986ZM153.58 8.00646C153.263 8.8514 152.841 9.59078 152.629 10.4357C153.263 10.4357 153.897 10.5413 154.425 10.4357C154.108 9.59078 153.791 8.8514 153.58 8.00646Z" fill="#3E1B6F"/>
<path d="M120.838 13.4981C120.31 13.6037 119.782 13.4981 119.254 13.6037C119.043 13.0756 118.832 12.4419 118.62 11.9138C117.67 11.9138 116.719 11.9138 115.769 11.9138C115.452 12.4419 115.346 13.0756 115.029 13.6037C113.973 13.6037 112.917 13.6037 111.861 13.6037C111.861 11.0689 111.861 8.63963 111.861 6.1048C112.389 6.1048 112.811 6.1048 113.445 6.1048C113.445 8.53402 113.445 10.9632 113.445 13.2868H113.551C114.501 10.8576 115.452 8.53402 116.402 6.1048C116.931 5.99918 117.459 6.1048 118.092 6.1048C118.515 7.05536 118.832 8.00594 119.254 8.9565C119.782 10.4352 120.416 11.8082 120.944 13.2868C120.733 13.1812 120.838 13.2868 120.838 13.4981C120.838 13.4981 120.838 13.3924 120.838 13.4981ZM117.987 10.5408C117.67 9.69583 117.353 8.85086 117.036 8.00591C116.719 8.95647 116.402 9.69583 116.191 10.5408C116.825 10.5408 117.353 10.5408 117.987 10.5408Z" fill="#3E1B6F"/>
<path d="M116.402 53.5279C116.508 54.1616 116.508 58.1751 116.297 59.1256C116.614 59.3369 116.93 59.5481 117.353 59.865C117.036 60.3931 116.719 60.9211 116.297 61.3436C115.874 61.1324 115.557 60.8156 115.029 60.6043C114.29 60.9212 113.551 61.0267 112.706 60.8155C111.755 60.6043 110.91 59.7593 110.805 58.5975C110.699 57.0133 110.805 55.3234 110.805 53.7391C110.805 53.7391 110.805 53.6335 110.91 53.5279C111.544 53.4223 112.178 53.5279 112.811 53.5279C112.917 53.7391 112.917 53.9503 112.917 54.1616C112.917 55.5346 112.917 56.9077 112.917 58.2807C112.917 58.9144 113.128 59.1256 113.762 59.3369C114.396 59.1256 114.607 58.9144 114.607 58.2807C114.607 56.9077 114.607 55.5347 114.607 54.2672C114.607 54.056 114.607 53.8447 114.607 53.6335C115.135 53.5279 115.769 53.5279 116.402 53.5279Z" fill="#3E1B6F"/>
<path d="M139.216 5.99976C139.744 5.99976 140.272 5.99976 140.694 5.99976C140.694 8.53459 140.694 10.9638 140.694 13.4986C140.166 13.4986 139.638 13.4986 139.11 13.4986C138.16 12.02 137.209 10.5413 136.364 9.06264C136.259 9.48511 136.259 9.80196 136.259 10.1188C136.259 10.4357 136.259 10.8581 136.259 11.175C136.259 11.5975 136.259 11.9144 136.259 12.3368C136.259 12.6537 136.259 13.0761 136.259 13.4986C135.73 13.4986 135.308 13.4986 134.78 13.4986C134.78 11.0694 134.78 8.53459 134.78 5.99976C135.202 5.99976 135.73 5.99976 136.259 5.99976C137.209 7.58403 138.16 9.06265 139.216 10.8582C139.216 9.16827 139.216 7.58403 139.216 5.99976Z" fill="#3E1B6F"/>
<path d="M106.579 5.99907C107.53 7.58334 108.48 9.16761 109.537 10.7519H109.642C109.642 9.16761 109.642 7.68894 109.642 6.10467C110.17 5.99905 110.593 6.10467 111.121 6.10467C111.227 6.52714 111.332 12.4418 111.227 13.6036C110.699 13.6036 110.17 13.6036 109.642 13.6036C108.692 12.1249 107.741 10.6462 106.896 9.06196H106.791C106.791 10.5406 106.791 12.0193 106.791 13.4979C106.474 13.6035 106.263 13.6036 106.051 13.6036C105.84 13.6036 105.629 13.6036 105.312 13.6036C105.312 11.0687 105.312 8.6395 105.312 6.10467C105.629 5.89343 106.051 5.99907 106.579 5.99907Z" fill="#3E1B6F"/>
<path d="M182.308 8.85115C182.308 10.541 182.308 12.0197 182.308 13.4983C181.78 13.4983 181.358 13.4983 180.829 13.4983C180.724 13.0758 180.618 7.47811 180.724 5.99946C181.252 5.89384 181.674 5.99946 182.202 5.99946C183.153 7.58373 184.104 9.16796 185.054 10.6466H185.16C185.16 9.06234 185.16 7.58373 185.16 5.99946C185.688 5.78822 186.11 5.99942 186.638 5.8938C186.744 6.42189 186.85 12.1253 186.744 13.3927C186.216 13.3927 185.688 13.3927 185.16 13.3927C184.315 12.0197 183.364 10.541 182.308 8.85115Z" fill="#3E1B6F"/>
<path d="M148.088 21.3138C148.088 19.8351 148.088 18.2508 148.088 16.6666C148.616 16.561 149.038 16.6666 149.461 16.6666C149.566 17.089 149.672 23.2149 149.461 24.1655C148.933 24.1655 148.405 24.1655 147.877 24.1655C147.454 23.4262 146.926 22.6868 146.504 21.9475C146.081 21.2081 145.553 20.4688 145.025 19.7295C145.025 21.2082 145.025 22.6868 145.025 24.1655C144.708 24.2711 144.497 24.2711 144.286 24.2711C144.074 24.2711 143.863 24.2711 143.546 24.2711C143.546 21.7362 143.546 19.3071 143.546 16.7722C144.074 16.7722 144.602 16.7722 145.131 16.7722C146.081 18.2509 147.032 19.8351 147.982 21.4194C148.088 21.3138 148.088 21.3138 148.088 21.3138Z" fill="#3E1B6F"/>
<path d="M170.478 19.7297C170.478 21.2083 170.478 22.687 170.478 24.1657C169.95 24.1657 169.528 24.1657 169 24.1657C168.894 23.7432 168.894 17.4061 169 16.6667C169.528 16.6667 169.95 16.6667 170.478 16.6667C171.429 18.251 172.38 19.7297 173.33 21.314H173.436C173.436 19.8353 173.436 18.251 173.436 16.6667C173.964 16.6667 174.386 16.6667 174.914 16.6667C175.02 17.1948 175.02 23.532 174.914 24.1657C174.386 24.1657 173.858 24.1657 173.33 24.1657C172.908 23.4263 172.38 22.687 171.957 21.9476C171.535 21.2083 171.007 20.469 170.584 19.7297C170.584 19.7297 170.584 19.7297 170.478 19.7297Z" fill="#3E1B6F"/>
<path d="M138.688 43.3881C139.321 43.3881 139.955 43.3881 140.589 43.3881C140.694 43.5993 140.694 43.8106 140.694 44.0218C140.694 45.3948 140.694 46.7679 140.694 48.0353C140.694 48.3521 140.694 48.5634 140.905 48.7746C141.328 49.3027 141.962 49.1971 142.173 48.669C142.279 48.4577 142.384 48.1409 142.384 47.824C142.384 46.5566 142.384 45.2892 142.384 43.9162C142.384 43.7049 142.384 43.4937 142.384 43.2825C143.018 43.2825 143.652 43.2825 144.285 43.2825C144.391 43.7049 144.391 48.0353 144.285 48.7746C144.602 48.9859 144.919 49.1971 145.236 49.514C144.919 50.042 144.602 50.4645 144.18 50.9926C143.652 50.7813 143.335 50.4645 142.912 50.2532C142.279 50.5701 141.539 50.6758 140.8 50.5701C139.427 50.2533 138.687 49.4083 138.582 48.0353C138.476 46.5566 138.582 44.9724 138.582 43.4937C138.582 43.4937 138.688 43.4937 138.688 43.3881Z" fill="#3E1B6F"/>
<path d="M132.351 49.6196C132.034 50.1477 131.717 50.6758 131.4 51.0983C130.977 50.8871 130.661 50.5702 130.238 50.359C129.71 50.5702 129.182 50.6758 128.548 50.6758C127.175 50.5702 126.013 49.6196 126.013 48.1409C126.013 46.5567 126.013 44.9724 126.013 43.4938C126.013 43.4938 126.013 43.3881 126.119 43.3881C126.753 43.3881 127.281 43.3881 127.915 43.3881C128.02 43.5994 128.02 43.8106 128.02 44.0219C128.02 45.2893 128.02 46.6623 128.02 47.9298C128.02 48.4578 128.126 48.8803 128.654 49.0915C128.971 49.1971 129.288 49.0915 129.499 48.8803C129.71 48.5634 129.816 48.2466 129.816 47.8241C129.816 46.5567 129.816 45.2893 129.816 43.9162C129.816 43.705 129.816 43.4938 129.816 43.2825C130.449 43.1769 131.083 43.2825 131.822 43.2825C131.822 45.1837 131.928 46.9792 131.717 48.8803C131.717 49.1971 132.034 49.4084 132.351 49.6196Z" fill="#3E1B6F"/>
<path d="M154.53 53.5271C155.27 53.5271 155.798 53.5271 156.432 53.5271C156.537 53.7383 156.537 53.844 156.537 54.0552C156.537 55.1114 156.537 56.2731 156.537 57.3293C156.537 57.8574 156.537 58.3855 156.643 58.808C156.854 59.0192 156.96 59.2305 157.382 59.3361C157.805 59.3361 158.121 59.0192 158.227 58.5967C158.227 58.3855 158.333 58.1743 158.333 57.8574C158.333 56.59 158.333 55.3226 158.333 54.1608C158.333 53.9495 158.333 53.7383 158.333 53.5271C158.966 53.5271 159.6 53.5271 160.234 53.5271C160.339 54.372 160.339 58.4912 160.128 59.0192C160.445 59.3361 160.762 59.5473 161.184 59.7585C160.868 60.2866 160.551 60.8147 160.128 61.3428C159.706 61.0259 159.283 60.8148 158.966 60.6035C158.227 60.9204 157.488 61.0259 156.748 60.8147C155.692 60.6035 154.742 59.7586 154.742 58.4912C154.53 56.8013 154.53 55.217 154.53 53.5271Z" fill="#3E1B6F"/>
<path d="M120.838 13.4986C120.838 13.4986 120.838 13.393 120.838 13.4986C121.155 13.2874 120.944 13.0762 120.944 12.8649C120.944 10.8582 120.944 8.74584 120.944 6.73909C120.944 6.52786 120.944 6.31658 121.05 6.10535C121.578 5.99973 122 6.10537 122.528 5.99976C123.479 7.58403 124.535 9.16831 125.591 10.9638C125.591 9.27393 125.591 7.68962 125.591 6.10535C126.119 5.99973 126.542 5.99976 127.07 5.99976C127.07 8.53459 127.07 10.9638 127.07 13.4986C126.647 13.6042 126.119 13.4986 125.591 13.6043C124.641 12.1256 123.69 10.5413 122.634 8.85145C122.634 10.5413 122.634 12.02 122.634 13.6043C121.895 13.4986 121.366 13.6042 120.838 13.4986Z" fill="#3E1B6F"/>
<path d="M204.171 10.2238C205.332 11.28 205.227 11.28 206.6 13.4979C205.966 13.4979 205.438 13.4979 204.804 13.4979C204.699 13.3923 204.593 13.2867 204.487 13.0755C203.959 12.4418 203.537 11.7024 203.114 11.0687C202.692 10.435 202.164 10.3294 201.425 10.4351C201.425 11.3856 201.425 12.4418 201.425 13.4979C200.896 13.4979 200.368 13.4979 199.84 13.4979C199.84 10.9631 199.84 8.53392 199.84 5.99909C200.052 5.89347 200.368 5.99909 200.58 5.99909C201.741 5.99909 202.798 5.99906 203.959 6.10468C205.121 6.2103 205.86 7.05526 205.966 7.9002C206.072 8.95638 205.544 9.80134 204.487 10.2238C204.487 10.2238 204.382 10.2238 204.171 10.2238ZM201.425 9.16763C202.164 9.16763 202.798 9.16763 203.431 9.16763C203.537 9.16763 203.643 9.06197 203.748 9.06197C204.065 8.95635 204.276 8.74517 204.276 8.3227C204.276 7.79461 203.959 7.37211 203.431 7.37211C202.798 7.37211 202.058 7.37211 201.425 7.37211C201.425 8.00582 201.425 8.53392 201.425 9.16763Z" fill="#3E1B6F"/>
<path d="M88.5196 48.9859C88.8364 49.1971 89.1532 49.4083 89.4701 49.6195C89.2588 50.1476 88.8364 50.6757 88.5196 51.2038C88.0971 50.9926 87.7802 50.7813 87.3577 50.4645C87.0409 50.4645 86.7241 50.6757 86.4072 50.6757C85.2454 50.887 83.978 50.5701 83.2387 49.4083C83.0274 49.0914 82.9218 48.8802 82.9218 48.5634C82.9218 46.8735 82.9218 45.1836 82.9218 43.3881C83.5555 43.3881 84.1892 43.3881 84.8229 43.3881C84.9285 43.5993 84.9285 43.8106 84.9285 44.0218C84.9285 45.2892 84.9285 46.5566 84.9285 47.7184C84.9285 47.9297 84.9285 48.1409 85.0341 48.4578C85.2453 49.1971 85.6678 49.3027 86.3015 48.9859C86.5128 48.669 86.6184 48.3521 86.6184 48.0353C86.724 46.7679 86.6184 45.6061 86.6184 44.3387C86.6184 44.0218 86.6184 43.7049 86.6184 43.2825C87.2521 43.2825 87.8858 43.2825 88.5196 43.2825C88.6252 44.1274 88.6252 47.5072 88.5196 48.9859Z" fill="#3E1B6F"/>
<path d="M89.0471 48.2465C89.6808 48.2465 90.2088 48.2465 90.8425 48.2465C90.8425 48.7746 91.0538 49.0914 91.5819 49.197C92.1099 49.3027 92.7437 49.3027 93.2718 48.9859C93.5886 48.7746 93.6942 48.3521 93.3774 47.824C93.1661 47.6128 92.8493 47.5072 92.5324 47.5072C91.5819 47.5072 90.7369 47.5072 89.7863 47.5072C89.5751 47.5072 89.3639 47.5072 89.1527 47.5072C89.1527 46.9791 89.1527 46.5566 89.1527 45.9229C90.3144 45.7117 91.4763 45.9229 92.7437 45.8173C93.0605 45.5005 93.0605 45.5004 92.9549 44.9723C92.4268 44.5499 92.4268 44.5499 91.5819 44.7611C91.4762 44.8668 91.4762 45.078 91.3706 45.1836C90.8425 45.1836 90.2088 45.1836 89.6807 45.1836C89.6807 44.3386 90.1032 43.8105 90.7369 43.3881C91.6875 42.86 93.1661 42.7544 94.2223 43.5993C94.9616 44.1274 95.2785 44.8668 94.9616 45.8173C94.7504 46.1342 94.5392 46.3454 94.1167 46.5566C94.3279 46.6622 94.5392 46.7679 94.7504 46.8735C95.3841 47.296 95.5954 47.9297 95.3841 48.5634C95.1729 49.3027 94.7504 49.9364 94.0111 50.1476C92.5324 50.7813 91.0537 50.6757 89.7863 49.6195C89.2582 49.5139 89.0471 48.8802 89.0471 48.2465Z" fill="#3E1B6F"/>
<path d="M91.5818 24.2713C91.0537 24.2713 90.5256 24.2713 89.9975 24.2713C89.9975 21.7365 89.9975 19.3073 89.9975 16.8781C90.2087 16.7724 90.3144 16.7725 90.5256 16.7725C91.6874 16.7725 92.9548 16.7725 94.1166 16.7725C94.9616 16.7725 95.5953 17.1949 96.0177 18.0398C96.3346 18.7792 96.3346 19.6241 95.7009 20.2578C95.5953 20.3635 95.5952 20.3635 95.5952 20.4691C95.2784 20.6803 94.8559 20.8916 94.4335 20.9972C95.5953 21.8421 96.1233 23.1095 96.8627 24.2713C96.229 24.3769 95.7009 24.2713 95.0671 24.2713C94.8559 24.0601 94.6447 23.8489 94.5391 23.6376C94.1166 23.1095 93.6941 22.5814 93.3773 21.9477C92.9548 21.314 92.4267 20.9971 91.5818 21.2084C91.5818 22.1589 91.5818 23.2151 91.5818 24.2713ZM91.5818 19.8353C92.3211 19.8353 92.9548 19.8353 93.5885 19.8353C94.1166 19.8353 94.4334 19.4129 94.5391 18.9904C94.5391 18.4623 94.3279 18.1454 93.7998 18.0398C93.0605 17.9342 92.3211 18.0398 91.5818 18.0398C91.5818 18.6735 91.5818 19.2016 91.5818 19.8353Z" fill="#3E1B6F"/>
<path d="M157.488 13.4986C157.488 11.0694 157.488 8.53456 157.488 6.10535C157.91 5.89411 158.438 6.10537 158.861 5.99976C159.811 7.58403 160.867 9.27393 161.924 10.9638C161.924 9.27393 161.924 7.68962 161.924 6.10535C162.452 5.99973 162.874 5.99973 163.402 6.10535C163.402 8.64018 163.402 11.0694 163.402 13.6043C162.98 13.7099 162.452 13.6042 161.924 13.7099C160.867 12.2312 160.022 10.6469 158.966 8.95705C158.966 10.5413 158.966 12.1256 158.966 13.7099C158.438 13.4986 158.016 13.6042 157.488 13.4986Z" fill="#3E1B6F"/>
<path d="M83.6607 59.4424C83.6607 59.8648 83.6607 60.2873 83.6607 60.6042C83.027 60.6042 82.3933 60.6042 81.654 60.6042C81.654 60.1817 81.654 59.8648 81.654 59.4424C81.1259 59.3367 80.5978 59.3368 80.1753 59.3368C79.0135 59.2311 78.2742 58.4918 77.9574 57.5412C77.5349 56.2738 77.6405 55.112 78.591 54.1615C79.436 53.3165 80.7034 53.1053 81.8652 53.6334C83.027 54.1615 83.6607 55.0064 83.6607 56.2738C83.6607 56.8019 83.6607 57.33 83.6607 57.9637C84.0832 57.9637 84.5057 57.9637 84.9281 57.9637C84.9281 58.4918 84.9281 59.0199 84.9281 59.548C84.6113 59.4424 84.1888 59.4424 83.6607 59.4424ZM80.0697 57.6468C80.5978 58.0693 81.1259 57.9637 81.654 57.8581C81.654 57.1188 81.654 56.3795 81.654 55.6401C81.654 55.0064 81.3371 54.7952 80.7034 54.7952C80.4922 54.7952 80.3866 54.9008 80.1753 55.0064C79.5416 55.8513 79.6473 56.8019 80.0697 57.6468Z" fill="#3E1B6F"/>
<path d="M141.328 5.99907C142.701 5.99907 144.074 5.89343 145.342 6.10467C146.292 6.3159 146.926 7.05524 147.243 7.90018C147.771 9.06198 147.771 10.3294 147.348 11.5968C146.926 12.7586 146.081 13.3923 144.919 13.4979C143.757 13.6035 142.49 13.4979 141.328 13.4979C141.328 10.9631 141.328 8.5339 141.328 5.99907ZM142.913 12.2305C143.546 12.2305 144.18 12.2305 144.814 12.1249C145.236 12.0193 145.553 11.808 145.764 11.3856C146.081 10.435 146.081 9.48443 145.87 8.53387C145.764 7.90016 145.342 7.47771 144.708 7.37209C144.074 7.26648 143.546 7.37209 142.913 7.37209C142.913 8.95636 142.913 10.5406 142.913 12.2305Z" fill="#3E1B6F"/>
<path d="M82.182 20.4692C82.182 19.2018 82.4988 18.1456 83.4493 17.3006C83.7662 16.9838 84.1887 16.7725 84.7168 16.6669C85.7729 16.4557 86.9347 16.4556 87.8853 16.9837C88.9415 17.6174 89.4696 18.6736 89.5752 19.8354C89.6808 20.5748 89.5752 21.4197 89.364 22.159C88.9415 23.3208 87.7797 24.2714 86.5123 24.377C85.8786 24.377 85.3505 24.4826 84.7168 24.2714C83.6606 23.9545 82.9212 23.2152 82.6044 22.2646C82.1819 21.6309 82.0763 20.9973 82.182 20.4692ZM83.8718 20.4692C83.8718 20.6804 83.8718 20.9972 83.8718 21.2084C83.8718 21.4197 83.9775 21.6309 84.0831 21.7365C84.3999 22.4759 85.1393 23.004 85.8786 23.004C86.7235 23.004 87.3572 22.5815 87.674 21.7365C87.9909 20.8916 87.9909 20.0467 87.674 19.2017C87.3572 18.3568 86.7235 17.9343 85.8786 17.9343C84.928 17.9343 84.2943 18.4624 84.0831 19.0961C83.8718 19.5186 83.7662 19.9411 83.8718 20.4692Z" fill="#3E1B6F"/>
<path d="M199.207 12.2312C199.207 12.6536 199.207 13.0761 199.207 13.4986C197.306 13.4986 195.405 13.4986 193.503 13.4986C193.503 10.9638 193.503 8.53459 193.503 5.99976C195.405 5.99976 197.2 5.99976 199.101 5.99976C199.101 6.42223 199.101 6.84469 199.101 7.37278C197.834 7.37278 196.461 7.37278 195.193 7.37278C195.193 7.90087 195.193 8.42896 195.193 8.95705C196.461 8.95705 197.623 8.95705 198.89 8.95705C198.89 9.48514 198.89 9.90759 198.89 10.3301C197.623 10.3301 196.461 10.3301 195.193 10.3301C195.193 10.9638 195.193 11.5975 195.193 12.2312C196.461 12.2312 197.834 12.2312 199.207 12.2312Z" fill="#3E1B6F"/>
<path d="M136.153 60.7094C135.52 60.7094 134.886 60.7094 134.252 60.7094C134.147 60.6038 134.147 60.3926 134.147 60.1813C134.147 58.9139 134.147 57.5409 134.147 56.2735C134.147 55.7454 134.041 55.2173 133.618 54.9004C133.09 54.9004 133.09 54.9004 132.668 55.006C132.457 55.3229 132.351 55.7454 132.351 56.1679C132.351 57.4353 132.351 58.7027 132.351 59.9701C132.351 60.1813 132.351 60.3926 132.351 60.6038C131.717 60.6038 131.084 60.6038 130.556 60.6038C130.45 60.4982 130.45 60.2869 130.45 60.1813C130.45 58.7027 130.45 57.3297 130.45 55.851C130.45 54.478 131.506 53.3162 132.985 53.3162C133.407 53.3162 133.935 53.3161 134.358 53.4218C135.203 53.7386 135.836 54.2667 136.048 55.2173C136.153 55.5341 136.153 55.9566 136.153 56.2735C136.153 57.7521 136.153 59.2308 136.153 60.7094Z" fill="#3E1B6F"/>
<path d="M208.818 60.7094C208.184 60.7094 207.551 60.7094 207.023 60.7094C206.917 60.4982 206.917 60.3926 206.917 60.1813C206.917 58.8083 206.917 57.5409 206.917 56.1679C206.917 55.5342 206.811 55.3229 206.389 54.9004C206.178 54.9004 205.966 54.9004 205.861 54.9004C205.544 55.006 205.333 55.1117 205.333 55.4285C205.333 55.7454 205.227 56.0622 205.227 56.2735C205.227 57.5409 205.227 58.7027 205.227 59.9701C205.227 60.1813 205.227 60.3926 205.227 60.6038C204.593 60.6038 203.96 60.6038 203.326 60.6038C203.326 60.4982 203.326 60.4982 203.326 60.3926C203.326 58.8083 203.326 57.224 203.326 55.7454C203.326 54.2667 204.382 53.4218 205.755 53.3162C206.178 53.3162 206.6 53.3161 207.128 53.4218C208.079 53.7386 208.924 54.5836 208.924 55.851C208.712 57.4353 208.818 59.0195 208.818 60.7094Z" fill="#3E1B6F"/>
<path d="M160.023 45.5008C159.389 45.6064 158.861 45.6064 158.227 45.5008C158.121 45.1839 158.016 44.7615 157.593 44.6559C157.276 44.5503 157.065 44.6559 156.854 44.9727C156.854 45.1839 156.748 45.5008 156.854 45.7121C156.96 45.9233 157.171 46.0289 157.382 46.0289C157.805 46.1345 158.121 46.2401 158.544 46.2401C159.389 46.4514 159.917 46.9795 160.128 47.8244C160.339 48.6694 160.234 49.3031 159.6 49.9368C159.178 50.3592 158.65 50.4649 158.121 50.5705C157.488 50.6761 156.748 50.6761 156.115 50.4649C155.27 50.148 154.53 49.4087 154.53 48.1413C155.164 48.0356 155.798 48.1413 156.432 48.1413C156.643 48.4581 156.432 48.775 156.748 48.9862C157.065 49.1975 157.382 49.0918 157.699 49.0918C157.805 48.9862 158.016 48.8806 158.121 48.775C158.227 48.5638 158.227 48.3525 158.121 48.0357C157.91 47.7188 157.488 47.6132 157.171 47.5076C156.854 47.402 156.537 47.4019 156.22 47.2963C155.27 46.9795 154.742 46.2402 154.636 45.2896C154.636 44.2334 155.375 43.3885 156.22 43.1773C156.96 42.966 157.805 42.966 158.544 43.2829C159.6 43.7053 160.128 44.5502 160.023 45.5008Z" fill="#3E1B6F"/>
<path d="M165.726 48.2465C166.36 48.1409 166.993 48.2465 167.627 48.2465C167.838 48.4578 167.627 48.669 167.838 48.8802C167.838 48.9858 168.05 49.0914 168.261 49.1971C168.683 49.3027 169 49.3027 169.423 48.8802C169.634 48.5634 169.634 48.3522 169.317 47.9297C168.894 47.6128 168.366 47.6128 167.733 47.5072C166.888 47.296 166.254 46.7679 166.043 45.9229C165.831 44.9724 166.254 43.8105 167.205 43.3881C168.155 42.9656 169.211 43.0713 170.162 43.4937C170.901 43.8106 171.324 44.5499 171.218 45.5004C170.584 45.5004 169.951 45.5004 169.423 45.5004C169.211 45.2892 169.422 45.078 169.211 44.9723C168.683 44.5499 168.472 44.6555 168.049 45.078C167.944 45.2892 168.049 45.6061 168.049 45.8173C168.155 46.1342 168.366 46.1342 168.578 46.2398C169.106 46.3454 169.528 46.451 170.056 46.5566C170.901 46.7678 171.429 47.5072 171.535 48.3521C171.64 49.1971 171.324 49.9364 170.373 50.3589C169.423 50.887 168.366 50.887 167.31 50.5701C166.465 50.2533 165.937 49.7252 165.831 48.7746C165.726 48.5634 165.62 48.4578 165.726 48.2465Z" fill="#3E1B6F"/>
<path d="M180.301 12.2312C180.301 12.6536 180.301 13.0761 180.301 13.4986C178.4 13.4986 176.499 13.4986 174.598 13.4986C174.598 10.9638 174.598 8.53459 174.598 5.99976C176.393 5.99976 178.294 5.99976 180.195 5.99976C180.301 6.42223 180.195 6.84469 180.195 7.37278C178.822 7.37278 177.555 7.37278 176.182 7.37278C176.182 7.90087 176.182 8.42896 176.182 8.95705C177.449 8.95705 178.611 8.95705 179.879 8.95705C179.879 9.48514 179.879 9.90759 179.879 10.3301C178.611 10.3301 177.449 10.3301 176.182 10.3301C176.182 10.9638 176.182 11.5975 176.182 12.2312C177.449 12.2312 178.822 12.2312 180.301 12.2312Z" fill="#3E1B6F"/>
<path d="M162.768 19.624C162.768 20.0465 162.768 20.3634 162.768 20.6802C162.768 20.7858 162.768 20.8915 162.663 20.9971C161.501 20.9971 160.234 20.9971 159.072 20.9971C159.072 21.6308 159.072 22.2645 159.072 22.8982C160.445 22.8982 161.818 22.8982 163.191 22.8982C163.191 23.3207 163.191 23.7432 163.191 24.1657C162.768 24.2713 158.544 24.2713 157.488 24.1657C157.488 21.7364 157.488 19.2016 157.488 16.6667C159.389 16.6667 161.184 16.6667 163.085 16.6667C163.191 17.0892 163.085 17.5117 163.191 17.9342C161.818 17.9342 160.55 17.9342 159.177 17.9342C159.177 18.4623 159.177 18.9904 159.177 19.5184C160.339 19.6241 161.501 19.624 162.768 19.624Z" fill="#3E1B6F"/>
<path d="M190.757 58.3859C191.391 58.3859 192.025 58.3859 192.658 58.3859C192.764 58.5972 192.658 59.0196 192.975 59.2309C193.398 59.4421 193.82 59.4421 194.243 59.1253C194.56 58.4916 194.454 58.0691 193.715 57.8578C193.292 57.7522 192.764 57.6466 192.342 57.541C191.497 57.3298 190.757 56.2736 190.863 55.2174C191.074 54.0556 192.025 53.2107 193.187 53.3163C193.609 53.3163 194.031 53.3163 194.348 53.4219C195.404 53.5275 196.144 54.6893 196.038 55.6399C195.721 55.7455 195.405 55.6399 195.088 55.6399C194.771 55.6399 194.454 55.6399 194.137 55.6399C194.032 55.323 194.032 55.0062 193.609 54.9006C193.503 54.9006 193.292 54.9006 193.081 54.9006C192.658 55.323 192.658 55.5343 192.975 56.168C193.503 56.3792 194.031 56.4848 194.56 56.5904C195.827 56.8017 196.672 58.2803 196.038 59.6534C195.827 60.0758 195.51 60.3927 195.088 60.604C194.137 61.0264 193.187 61.132 192.13 60.8151C191.285 60.3927 190.546 59.4421 190.757 58.3859Z" fill="#3E1B6F"/>
<path d="M98.7645 13.4986C98.7645 10.9638 98.7645 8.53459 98.7645 5.99976C100.56 5.99976 102.461 5.99976 104.257 5.99976C104.257 6.42223 104.257 6.84471 104.257 7.26718C102.989 7.26718 101.616 7.26718 100.349 7.26718C100.243 7.79527 100.349 8.32336 100.243 8.85145C101.511 8.85145 102.672 8.85145 103.94 8.85145C103.94 9.27393 103.94 9.69638 103.94 10.2245C102.672 10.2245 101.511 10.2245 100.243 10.2245C100.138 10.8582 100.243 11.4919 100.243 12.1256C101.616 12.1256 102.989 12.1256 104.362 12.1256C104.468 12.5481 104.362 12.9705 104.468 13.393C102.567 13.4986 100.666 13.4986 98.7645 13.4986Z" fill="#3E1B6F"/>
<path d="M125.274 22.8983C125.274 23.3208 125.274 23.7432 125.274 24.1657C124.746 24.2713 120.733 24.2713 119.571 24.2713C119.571 21.8421 119.571 19.3073 119.571 16.7725C121.472 16.7725 123.268 16.7725 125.169 16.7725C125.169 17.1949 125.169 17.6174 125.169 18.0398C123.796 18.0398 122.528 18.0398 121.155 18.0398C121.05 18.5679 121.155 19.096 121.05 19.6241C122.317 19.6241 123.585 19.6241 124.746 19.6241C124.852 19.7297 124.852 19.8354 124.852 20.0466C124.852 20.3634 124.852 20.6803 124.746 21.1028C124.113 21.1028 123.479 21.1028 122.951 21.1028C122.317 21.1028 121.683 21.1028 121.05 21.1028C121.05 21.7365 121.05 22.3702 121.05 23.0039C121.472 23.1095 122 23.0039 122.423 23.1095C122.845 23.1095 123.373 23.1095 123.796 23.1095C124.324 22.8983 124.746 22.8983 125.274 22.8983Z" fill="#3E1B6F"/>
<path d="M91.054 56.2733C89.681 56.2733 88.4136 56.2733 87.0405 56.2733C87.0405 57.2239 86.9349 58.0688 87.1461 58.9138C87.2517 59.125 87.3574 59.2306 87.5686 59.2306C87.9911 59.4419 88.6248 59.2306 88.6248 58.7025C88.7304 58.4913 88.7304 58.1745 88.7304 57.9633C88.7304 57.752 88.7304 57.5408 88.7304 57.2239C89.3641 57.2239 89.9978 57.2239 90.6316 57.2239C90.6316 57.752 90.7372 58.2801 90.6316 58.7025C90.2091 60.1812 88.9417 60.9205 87.463 60.7093C86.7237 60.6037 86.09 60.2868 85.6675 59.7587C85.245 59.3362 85.0338 58.8082 85.0338 58.2801C85.0338 56.6958 85.0338 55.1116 85.0338 53.5273C85.0338 53.5273 85.0338 53.4216 85.1394 53.4216C85.7731 53.4216 86.3012 53.4216 87.0405 53.4216C87.0405 53.8441 87.0405 54.161 87.0405 54.6891C87.6742 54.6891 88.3079 54.6891 88.9416 54.6891C89.5753 54.6891 90.2091 54.6891 90.9484 54.6891C91.1596 55.2171 91.054 55.7452 91.054 56.2733Z" fill="#3E1B6F"/>
<path d="M138.899 20.9972C138.899 21.7365 138.899 22.2646 138.899 22.8983C140.272 22.8983 141.645 22.8983 143.018 22.8983C143.124 23.3208 143.018 23.7432 143.018 24.1657C142.49 24.2713 138.477 24.3769 137.315 24.2713C137.315 21.8421 137.315 19.3073 137.315 16.7725C139.216 16.7725 141.012 16.7725 142.913 16.7725C142.913 17.1949 142.913 17.6174 142.913 18.0398C141.54 18.0398 140.272 18.0398 138.899 18.0398C138.794 18.5679 138.899 19.096 138.794 19.6241C140.061 19.6241 141.223 19.6241 142.49 19.6241C142.49 20.1522 142.49 20.5747 142.49 20.9972C141.329 20.9972 140.167 20.9972 138.899 20.9972Z" fill="#3E1B6F"/>
<path d="M79.2244 5.99976C79.7525 5.99976 80.2807 5.99976 80.9144 5.99976C81.8649 8.42897 82.9211 10.9638 83.8717 13.4986C83.3436 13.6042 82.7099 13.4986 82.1818 13.4986C81.8649 12.9705 81.7593 12.3368 81.4425 11.8087C80.4919 11.8087 79.5413 11.8087 78.5908 11.8087C78.2739 12.3368 78.1683 12.9705 77.8514 13.4986C77.3233 13.4986 76.7953 13.4986 76.1616 13.4986C77.2177 10.9638 78.1683 8.53459 79.2244 5.99976ZM79.9638 7.90087C79.6469 8.85143 79.3301 9.69637 79.0133 10.5413C79.647 10.5413 80.175 10.5413 80.9144 10.5413C80.5975 9.69637 80.3863 8.85143 79.9638 7.90087Z" fill="#3E1B6F"/>
<path d="M165.515 56.8021C166.148 56.8021 166.782 56.8021 167.416 56.8021C167.416 57.5414 167.521 58.1751 167.416 58.9144C167.31 59.7594 166.782 60.2875 166.043 60.6044C165.092 61.0268 164.141 61.0268 163.191 60.6044C162.452 60.1819 162.029 59.5481 161.818 58.7032C161.712 58.0695 161.712 57.3302 161.712 56.6965C161.712 56.1684 161.712 55.7459 161.712 55.2178C161.29 55.0066 160.867 55.2178 160.445 55.1122C160.339 54.5841 160.445 54.1616 160.445 53.6335C160.973 53.6335 161.607 53.6335 162.135 53.6335C162.663 53.6335 163.191 53.6335 163.719 53.6335C163.825 53.8448 163.825 54.1617 163.825 54.2673C163.825 55.5347 163.825 56.8021 163.825 58.0695C163.825 58.2807 163.825 58.3864 163.825 58.5976C163.93 59.4425 164.564 59.6538 165.303 59.2313C165.62 58.3863 165.409 57.647 165.515 56.8021Z" fill="#3E1B6F"/>
<path d="M145.764 44.8669C145.341 44.8669 144.919 44.8669 144.496 44.8669C144.496 44.3388 144.496 43.8107 144.496 43.3882C144.602 43.3882 144.708 43.3882 144.813 43.3882C145.764 43.3882 146.714 43.3882 147.665 43.3882C147.77 43.5994 147.77 43.705 147.77 43.9163C147.77 45.2893 147.77 46.5568 147.77 47.9298C147.77 48.5635 147.876 48.7747 148.299 49.1972C149.038 49.3028 149.355 49.0916 149.355 48.3522C149.355 47.8242 149.355 47.2961 149.46 46.768C149.777 46.6624 150.094 46.768 150.411 46.768C150.728 46.768 151.045 46.768 151.362 46.768C151.362 47.5073 151.467 48.141 151.362 48.7747C151.15 50.1478 150.305 50.6759 149.143 50.8871C148.193 50.9927 147.242 50.8871 146.503 50.1478C146.081 49.7253 145.764 49.0916 145.764 48.4579C145.764 47.5073 145.764 46.4511 145.764 45.5005C145.869 45.2893 145.975 45.0781 145.764 44.8669Z" fill="#3E1B6F"/>
<path d="M117.564 21.4198C117.987 21.631 118.515 21.7366 118.937 21.9479C118.832 23.2153 117.459 24.3771 116.085 24.3771C113.973 24.4827 112.389 22.7928 112.389 20.7861C112.389 20.1524 112.389 19.413 112.6 18.7793C113.023 17.6175 114.29 16.5614 115.557 16.5614H115.663C117.247 16.4558 118.198 16.8782 118.937 18.7793C118.515 19.0962 117.987 18.9906 117.564 19.2018C117.353 19.0962 117.353 18.9906 117.247 18.885C116.93 18.2513 116.402 17.9344 115.769 18.04C115.135 18.04 114.501 18.3569 114.29 18.9906C113.867 20.0468 113.867 21.1029 114.29 22.1591C114.501 22.7928 115.135 23.1097 115.769 23.1097C116.402 23.1097 116.93 22.7928 117.142 22.1591C117.353 21.8423 117.459 21.631 117.564 21.4198Z" fill="#3E1B6F"/>
<path d="M172.485 10.7518C173.014 10.8574 173.436 10.963 173.964 11.1742C173.753 12.4416 172.697 13.4979 171.429 13.6035C170.796 13.7091 170.056 13.7091 169.423 13.3922C168.261 12.8641 167.627 11.9135 167.416 10.6461C167.31 9.80118 167.31 8.95627 167.627 8.11133C168.155 6.63268 169.528 5.68208 171.324 5.89331C172.802 5.99893 173.436 6.84391 173.964 8.11133C173.542 8.42818 172.908 8.32253 172.591 8.53376C172.38 8.42814 172.38 8.32254 172.274 8.21692C171.957 7.58321 171.429 7.26637 170.796 7.37199C170.162 7.37199 169.634 7.68887 169.317 8.32258C169.211 8.63943 169.106 8.95625 169.106 9.2731C169.106 9.90681 169 10.5405 169.211 11.1742C169.528 12.0192 170.056 12.4416 170.901 12.4416C171.535 12.4416 171.957 12.1248 172.169 11.5967C172.274 11.1742 172.38 10.963 172.485 10.7518Z" fill="#3E1B6F"/>
<path d="M187.377 21.9476C187.166 22.5814 186.955 23.1094 186.532 23.5319C186.11 23.9544 185.582 24.2712 185.054 24.3768C182.519 24.7993 180.935 23.1095 180.829 20.9971C180.829 20.2578 180.829 19.6241 181.04 18.8848C181.357 17.723 182.625 16.6667 183.892 16.6667C184.314 16.6667 184.842 16.6667 185.265 16.6667C186.004 16.7724 186.532 17.3005 186.955 17.9342C187.166 18.1454 187.272 18.4623 187.377 18.7791C186.955 19.096 186.427 18.9904 186.004 19.2016C185.793 19.096 185.793 18.9903 185.687 18.7791C185.371 18.1454 184.948 17.9342 184.314 17.9342C183.681 17.9342 183.047 18.1454 182.836 18.7791C182.413 19.8353 182.413 20.8915 182.836 22.0533C183.153 23.0039 184.526 23.3207 185.265 22.687C185.371 22.5814 185.476 22.4757 185.582 22.2645C185.687 21.9476 185.899 21.7364 186.004 21.4196C186.427 21.6308 186.955 21.6308 187.377 21.9476Z" fill="#3E1B6F"/>
<path d="M155.375 21.4196C155.903 21.5252 156.326 21.7365 156.854 21.8421C156.643 23.1095 155.375 24.2713 153.897 24.3769C151.89 24.3769 150.411 22.7927 150.411 20.9972C150.411 20.1522 150.411 19.2016 150.728 18.4623C151.256 17.3005 152.207 16.6668 153.474 16.5612C155.059 16.4556 156.009 16.6668 156.854 18.6735C156.432 18.9904 155.798 18.8847 155.375 19.096C155.164 18.9904 155.164 18.8848 155.164 18.7791C154.847 18.1454 154.319 17.8286 153.685 17.8286C153.052 17.8286 152.524 18.1455 152.207 18.6735C152.101 18.9904 151.996 19.3072 151.996 19.6241C151.996 20.3634 151.89 20.9971 152.101 21.7364C152.418 22.5814 152.946 22.8983 153.685 22.8983C154.425 22.8983 154.847 22.4758 155.164 21.8421C155.27 21.7365 155.27 21.5252 155.375 21.4196Z" fill="#3E1B6F"/>
<path d="M202.692 57.9638C202.058 57.9638 201.425 57.9638 200.685 57.9638C200.685 57.3301 200.685 56.6964 200.685 56.1683C200.685 55.9571 200.685 55.6402 200.58 55.429C200.368 55.0065 200.157 54.9009 199.735 54.9009C199.312 55.0065 199.101 55.2178 198.995 55.6402C198.995 56.2739 198.995 56.9076 198.995 57.5413C198.995 58.5975 198.995 59.5481 198.995 60.7099C198.362 60.8155 197.728 60.7099 197.094 60.7099C196.883 60.6043 196.989 60.393 196.989 60.2874C196.989 59.02 196.989 57.7526 196.989 56.3796C196.989 55.9571 196.989 55.5346 197.094 55.2177C197.411 54.2672 198.045 53.6335 198.995 53.4222C200.157 53.211 201.213 53.3166 202.058 54.2672C202.375 54.5841 202.481 54.9009 202.586 55.3234C202.692 56.274 202.692 57.0133 202.692 57.9638Z" fill="#3E1B6F"/>
<path d="M97.0744 57.9636C96.4407 57.9636 95.807 57.9636 95.1733 57.9636C95.1733 57.4355 95.1733 56.8018 95.1733 56.2737C95.1733 56.0625 95.1733 55.9569 95.1733 55.7456C95.0677 55.3231 94.962 55.0063 94.5396 54.9007C94.2227 54.7951 93.9059 54.9007 93.4834 55.4288C93.4834 57.1187 93.4834 58.9142 93.4834 60.7097C92.7441 60.7097 92.1104 60.7097 91.4767 60.7097C91.3711 60.6041 91.371 60.3928 91.371 60.1816C91.371 58.9142 91.371 57.6467 91.371 56.2737C91.371 56.0625 91.3711 55.7456 91.4767 55.5344C91.6879 54.3726 92.3216 53.6332 93.4834 53.422C94.5396 53.2108 95.5958 53.3164 96.4407 54.1613C96.8632 54.5838 97.0744 55.1119 97.0744 55.64C97.18 56.3793 97.0744 57.1187 97.0744 57.9636Z" fill="#3E1B6F"/>
<path d="M177.027 55.4287C177.027 57.2242 177.027 58.9141 177.027 60.604C176.393 60.7096 175.76 60.604 175.02 60.604C175.02 59.9703 175.02 59.3366 175.02 58.5972C174.07 59.1253 173.225 58.9141 172.38 58.386C171.852 58.0691 171.429 57.5411 171.429 56.9074C171.324 55.7456 171.429 54.5837 171.324 53.4219C171.957 53.3163 172.591 53.4219 173.225 53.4219C173.33 54.6894 173.119 55.9568 173.436 57.1186C173.964 57.541 174.387 57.5411 174.809 57.2242C175.126 56.6961 175.02 56.0624 175.02 55.4287C175.76 55.4287 176.288 55.4287 177.027 55.4287Z" fill="#3E1B6F"/>
<path d="M125.168 45.2894C125.168 47.0849 125.168 48.7748 125.168 50.5703C124.535 50.5703 123.901 50.5703 123.162 50.5703C123.162 49.9365 123.162 49.3028 123.162 48.5635C122.105 48.986 121.26 48.7747 120.416 48.2466C119.887 47.8242 119.571 47.4017 119.571 46.768C119.465 45.7118 119.571 44.55 119.571 43.3882C120.204 43.3882 120.838 43.3882 121.472 43.3882C121.683 44.55 121.366 45.8174 121.683 46.9792C122 47.4017 122.422 47.2961 122.739 47.2961C123.478 46.8736 123.162 46.0287 123.267 45.395C123.795 45.2893 124.429 45.2894 125.168 45.2894Z" fill="#3E1B6F"/>
<path d="M135.519 47.2961C136.153 46.768 135.942 46.0287 136.047 45.395C136.681 45.395 137.315 45.395 137.948 45.395C137.948 47.0848 137.948 48.8804 137.948 50.5703C137.315 50.5703 136.681 50.5703 136.047 50.5703C136.047 49.9365 136.047 49.3028 136.047 48.5635C134.991 49.0916 134.146 48.8804 133.301 48.2466C132.773 47.9298 132.562 47.4017 132.456 46.8736C132.351 46.3455 132.351 45.923 132.351 45.395C132.351 44.7612 132.351 44.1275 132.351 43.3882C133.09 43.3882 133.724 43.3882 134.357 43.3882C134.463 44.6556 134.252 45.923 134.569 46.9792C134.78 47.2961 135.202 47.2961 135.519 47.2961Z" fill="#3E1B6F"/>
<path d="M78.5913 18.0398C78.5913 18.6735 78.5913 19.2016 78.5913 19.7297C79.1194 19.8353 79.6475 19.7297 80.07 19.7297C80.5981 19.7297 81.0205 19.7297 81.5486 19.7297C81.5486 20.1522 81.5486 20.5746 81.5486 21.1027C80.598 21.1027 79.5419 21.1027 78.4857 21.1027C78.4857 22.1589 78.4857 23.1095 78.4857 24.1657C77.9576 24.2713 77.4295 24.2713 76.9014 24.1657C76.9014 21.6308 76.9014 19.2016 76.9014 16.6667C78.5913 16.6667 80.3868 16.6667 82.0767 16.6667C82.1823 17.0892 82.0767 17.5117 82.1823 17.9342C81.0205 18.0398 79.7531 18.0398 78.5913 18.0398Z" fill="#3E1B6F"/>
<path d="M80.3863 50.5702C80.3863 49.7253 80.3863 48.9859 80.3863 48.2466C79.647 47.296 78.6964 47.8241 77.8514 47.6128C77.8514 47.0848 77.8514 46.6623 77.8514 46.1342C78.3795 46.1342 78.802 46.1342 79.2245 46.0286C79.7526 45.923 79.9638 45.7118 79.9638 45.3949C79.9638 45.078 79.7526 44.8668 79.3301 44.7612C78.9077 44.7612 78.5908 44.7612 78.1683 44.7612C78.0627 44.7612 77.9571 44.7612 77.8514 44.7612C77.7458 44.2331 77.8514 43.8106 77.8514 43.2825C78.5908 43.2825 79.4357 43.1769 80.1751 43.2825C81.2312 43.3882 82.0762 44.3387 81.9706 45.5005C81.9706 46.0286 81.6537 46.4511 81.2312 46.6623C81.2312 46.8736 81.4425 46.8735 81.5481 46.9792C81.9705 47.296 82.393 47.8241 82.393 48.4578C82.393 49.1972 82.393 49.9364 82.393 50.7814C81.6537 50.5702 81.1256 50.5702 80.3863 50.5702Z" fill="#3E1B6F"/>
<path d="M160.656 47.5068C160.656 47.1899 160.656 46.7675 160.656 46.345C160.656 46.2394 160.656 46.1337 160.762 46.0281C161.29 45.9225 161.924 46.1338 162.557 45.8169C162.663 45.8169 162.768 45.7113 162.768 45.6057C162.874 45.3944 162.874 45.1831 162.768 44.9719C162.24 44.3382 161.395 44.6551 160.656 44.5495C160.656 44.0214 160.656 43.5989 160.656 43.0708C161.501 43.1764 162.452 42.9652 163.297 43.1765C164.142 43.3877 164.67 44.0213 164.881 44.9719C164.986 45.3944 164.775 45.8169 164.564 46.1337C164.458 46.2394 164.353 46.4506 164.142 46.5562C164.142 46.7674 164.353 46.7675 164.458 46.8731C165.092 47.2956 165.303 47.9292 165.303 48.6685C165.303 49.3022 165.303 49.8304 165.303 50.4641C164.67 50.4641 164.036 50.4641 163.402 50.4641C163.297 50.2528 163.297 50.0416 163.297 49.8304C163.297 49.4079 163.297 49.091 163.297 48.6685C163.297 47.8236 162.98 47.6124 162.24 47.5068C161.924 47.5068 161.607 47.5068 161.184 47.5068C160.973 47.6124 160.762 47.6124 160.656 47.5068Z" fill="#3E1B6F"/>
<path d="M102.989 44.9725C102.355 44.55 101.616 44.7612 100.982 44.6556C100.982 44.1275 100.982 43.7051 100.982 43.2826C101.299 43.177 102.883 43.177 103.2 43.177C103.622 43.2826 103.939 43.3882 104.256 43.5994C105.207 44.3388 105.418 45.7118 104.362 46.5567C104.362 46.6623 104.573 46.6624 104.679 46.768C105.207 47.1904 105.524 47.7185 105.524 48.3522C105.524 48.986 105.524 49.7253 105.524 50.4646C104.89 50.4646 104.256 50.4646 103.623 50.4646C103.517 50.1477 103.623 49.7253 103.623 49.3028C103.623 48.8804 103.623 48.5635 103.623 48.141C103.411 47.6129 103.094 47.5073 102.672 47.5073C102.144 47.5073 101.616 47.5073 101.088 47.5073C100.982 46.9792 101.088 46.4511 100.982 46.0286C101.299 45.923 101.51 46.0287 101.827 45.923C102.038 45.923 102.249 45.9231 102.461 45.8175C103.094 45.9231 103.2 45.6062 102.989 44.9725Z" fill="#3E1B6F"/>
<path d="M189.384 7.3721C188.645 7.3721 188.011 7.3721 187.272 7.3721C187.272 6.94962 187.272 6.52714 187.272 6.10467C187.694 5.99905 191.708 5.89346 193.186 5.99908C193.292 6.21031 193.186 6.42152 193.292 6.63276C193.292 6.84399 193.292 7.05527 193.292 7.2665C192.553 7.2665 191.813 7.2665 191.074 7.2665C191.074 9.37886 191.074 11.3856 191.074 13.3923C190.546 13.498 190.018 13.3923 189.595 13.3923C189.49 12.8642 189.595 12.3361 189.49 11.9137C189.49 11.3856 189.49 10.8575 189.49 10.3294C189.49 9.8013 189.49 9.27321 189.49 8.74512C189.384 8.32265 189.49 7.90019 189.384 7.3721Z" fill="#3E1B6F"/>
<path d="M193.398 16.7724C193.398 17.1949 193.398 17.6173 193.398 18.0398C192.659 18.0398 192.025 18.0398 191.286 18.0398C191.286 20.1521 191.286 22.1589 191.286 24.1657C190.757 24.1657 190.229 24.1657 189.701 24.1657C189.701 23.2151 189.701 22.1589 189.701 21.1027C189.701 20.0465 189.701 19.096 189.701 17.9342C188.962 17.9342 188.223 17.9342 187.483 17.9342C187.483 17.5117 187.483 17.0892 187.483 16.6667C189.49 16.7724 191.391 16.7724 193.398 16.7724Z" fill="#3E1B6F"/>
<path d="M131.506 16.7725C132.034 16.7725 132.562 16.7725 133.09 16.7725C133.09 18.7792 133.09 20.7859 133.09 22.8983C134.358 22.8983 135.625 22.8983 136.787 22.8983C136.787 23.3208 136.787 23.7432 136.787 24.1657C134.991 24.1657 133.301 24.1657 131.506 24.1657C131.506 21.7365 131.506 19.3073 131.506 16.7725Z" fill="#3E1B6F"/>
<path d="M49.9685 84.7905C49.1236 84.7905 48.2786 84.7905 47.4337 84.7905C47.1168 85.213 47.1168 85.8467 46.6943 86.2692C46.3775 86.3748 46.0606 86.3748 45.8494 85.9524C45.7438 85.3186 46.0607 84.7905 46.2719 84.2624C46.6944 82.995 47.2224 81.7276 47.7505 80.4602C48.0674 79.7209 48.5955 79.5096 49.3348 79.9321C50.0741 81.622 50.8135 83.4175 51.5528 85.213C51.6584 85.4243 51.6584 85.6355 51.5528 85.8467C51.3416 86.1636 51.1303 86.2692 50.7078 86.1635C50.2853 85.8467 50.391 85.213 49.9685 84.7905ZM48.7011 81.0939C48.3843 82.0445 48.0674 82.8894 47.7505 83.7343C48.3842 83.7343 49.0179 83.7343 49.6516 83.7343C49.3348 82.8894 49.018 82.0445 48.7011 81.0939Z" fill="#B5B0AD"/>
<path d="M66.1284 82.0442C65.9172 82.1498 65.7059 82.1498 65.4947 82.1498C65.2834 82.0442 65.1778 81.8329 64.9666 81.6217C64.4385 80.7768 63.8048 80.6711 62.9599 80.8824C62.2206 81.0936 62.0093 81.7273 61.9037 82.361C61.7981 82.6779 61.9037 82.9948 61.9037 83.3116C61.9037 84.1566 62.2206 84.7903 62.9599 85.2127C63.1711 85.2127 63.3823 85.2127 63.5936 85.2127C64.3329 85.3184 64.861 84.7903 65.0722 84.1566C65.1779 83.9453 65.2835 83.7341 65.3891 83.6285C65.6003 83.6285 65.8115 83.5228 66.0228 83.7341C66.234 84.0509 66.234 84.4734 66.0228 84.7902C65.6003 85.6352 64.9666 86.1633 63.9104 86.1633C63.3823 86.1633 62.9599 86.1633 62.4318 86.0577C61.3756 85.7408 60.5307 84.6846 60.5307 83.5228C60.5307 82.8891 60.425 82.2554 60.6363 81.6217C61.0588 80.5655 61.7981 79.9318 62.8542 79.7206C64.016 79.5094 64.9666 79.8262 65.7059 80.6712C66.234 81.1993 66.3397 81.6217 66.1284 82.0442Z" fill="#B5B0AD"/>
<path d="M136.259 53.5271C136.893 53.5271 137.421 53.5271 138.054 53.5271C138.16 54.1608 138.054 54.7945 138.16 55.4282C138.688 55.4282 139.216 55.4282 139.85 55.4282C139.85 55.9563 139.85 56.4844 139.85 56.9069C139.322 57.0125 138.794 56.9069 138.16 57.0125C138.16 58.2799 138.16 59.4417 138.16 60.7091C137.526 60.8147 136.893 60.7091 136.259 60.7091C136.259 58.5967 136.259 56.3788 136.259 54.2664C136.259 53.9496 136.259 53.7383 136.259 53.5271Z" fill="#3E1B6F"/>
<path d="M125.802 16.7725C126.33 16.7725 126.753 16.7725 127.281 16.7725C127.281 18.7792 127.281 20.7859 127.281 22.8983C128.548 22.8983 129.816 22.8983 130.978 22.8983C130.978 23.3208 130.978 23.7432 130.978 24.1657C130.555 24.2713 126.647 24.2713 125.802 24.1657C125.802 23.6376 125.802 17.723 125.802 16.7725Z" fill="#3E1B6F"/>
<path d="M59.791 80.8826C59.2629 80.8826 58.7348 80.8826 58.2067 80.8826C58.1011 81.0938 58.101 81.1994 58.101 81.4107C58.101 82.7837 58.101 84.0512 58.101 85.4242C58.101 85.7411 58.1011 86.0579 57.7842 86.2692C57.573 86.3748 57.3618 86.3748 57.1505 86.2692C56.8337 86.0579 56.8337 85.7411 56.8337 85.4242C56.8337 84.1568 56.8337 82.8894 56.8337 81.5163C56.8337 81.3051 56.8337 81.0938 56.8337 80.8826C56.2 80.8826 55.6718 80.8826 55.1437 80.8826C54.6157 80.3545 54.6157 80.3545 55.1437 79.8264C56.728 79.8264 58.2067 79.8264 59.791 79.8264C60.1078 79.932 60.2134 80.1433 60.1078 80.4602C60.2134 80.6714 60.0022 80.777 59.791 80.8826Z" fill="#B5B0AD"/>
<path d="M132.562 5.99976C133.09 5.99976 133.512 5.99976 134.041 5.99976C134.041 8.53459 134.041 10.9638 134.041 13.4986C133.512 13.4986 133.09 13.4986 132.562 13.4986C132.562 10.9638 132.562 8.53459 132.562 5.99976Z" fill="#3E1B6F"/>
<path d="M178.823 16.7725C179.351 16.7725 179.773 16.7725 180.301 16.7725C180.301 19.3073 180.301 21.7365 180.301 24.2713C179.773 24.3769 179.351 24.2713 178.823 24.2713C178.823 21.7365 178.823 19.2017 178.823 16.7725Z" fill="#3E1B6F"/>
<path d="M168.261 24.2713C167.733 24.2713 167.31 24.2713 166.782 24.2713C166.782 21.7365 166.782 19.3073 166.782 16.7725C167.31 16.7725 167.733 16.7725 168.261 16.7725C168.367 17.1949 168.367 23.2151 168.261 24.2713Z" fill="#3E1B6F"/>
<path d="M53.1372 79.7205C53.454 79.7205 53.6652 79.8261 53.8764 80.0373C53.8764 81.9384 53.8764 83.9452 53.8764 85.9519C53.6652 86.2688 53.454 86.3744 53.0315 86.2688C52.7146 86.0575 52.6091 85.6351 52.6091 85.3182C52.6091 83.8395 52.6091 82.3609 52.6091 80.8822C52.7147 80.4598 52.7147 79.9317 53.1372 79.7205Z" fill="#B5B0AD"/>
<path d="M131.188 11.5973C130.238 11.5973 129.287 11.5973 128.337 11.5973C128.231 11.0692 128.337 10.6467 128.337 10.1187C129.287 10.1187 130.238 10.1187 131.294 10.1187C131.188 10.5411 131.188 11.0692 131.188 11.5973Z" fill="#3E1B6F"/>
<path d="M96.6521 48.6689C96.6521 48.1408 96.6521 47.7184 96.6521 47.2959C97.6027 47.2959 98.4476 47.2959 99.3982 47.2959C99.3982 47.7184 99.3982 48.2464 99.3982 48.6689C98.4476 48.6689 97.6027 48.6689 96.6521 48.6689Z" fill="#3E1B6F"/>
<path d="M136.258 53.5271C136.258 53.7383 136.258 53.9496 136.258 54.2664C136.258 56.3788 136.258 58.5967 136.258 60.7091H136.153C136.153 59.2305 136.153 57.8574 136.153 56.3788C136.153 56.0619 136.153 55.6395 136.047 55.3226C136.258 55.217 136.153 55.0057 136.153 54.9001C136.153 54.4776 136.153 54.1608 136.153 53.7383C136.153 53.5271 136.153 53.5271 136.258 53.5271Z" fill="#3E1B6F"/>
</svg>
